<svg viewBox="0 0 330 330" fill="none" xmlns="http://www.w3.org/2000/svg" xmlns:xlink="http://www.w3.org/1999/xlink"><g clip-path="url(#a)"><rect width="330" height="330" fill="#fff"/><mask id="b" style="mask-type:alpha" maskUnits="userSpaceOnUse" x="-20" y="15" width="378" height="301"><path d="M-19 24h376M-19 166h376M-19 59h376M-19 201h376M-19 95h376M-19 236l376 1M-19 130h376M-19 272h376m-376 35h376" stroke="#fff" stroke-width="17"/></mask><g mask="url(#b)"><path d="M180 224h-49l-16 95H39L92 16h120c64 0 102 30 102 88 0 80-62 120-134 120m-38-60h39q26 0 41-15 14-14 14-39 0-34-42-34h-36z" fill="#f0c"/></g><mask id="c" style="mask-type:alpha" maskUnits="userSpaceOnUse" x="9" y="-3" width="349" height="301"><path d="M10 6h347M10 148h347M10 41h347M10 183h347M10 77h347M10 218l347 1M10 112h347M10 254h347M10 289h347" stroke="#fff" stroke-width="17"/></mask><g mask="url(#c)"><g style="mix-blend-mode:multiply"><path d="M152 224h-49l-17 95H10L64 16h119c64 0 102 30 102 88 0 80-62 120-133 120m-39-60h39q26 0 41-15 14-14 14-39 0-34-42-34h-36z" fill="#00ffd5"/></g></g></g><defs><clipPath id="a"><rect width="330" height="330" fill="#fff"/></clipPath></defs></svg>