<svg viewBox="0 0 163 34" fill="none" xmlns="http://www.w3.org/2000/svg" xmlns:xlink="http://www.w3.org/1999/xlink"><g clip-path="url(#a)" stroke-width="2" stroke-linecap="square"><path d="M10 1h18" stroke="#f0c"/><path d="M6.5 3H28" stroke="#00ffd5"/><path d="M9 5h23.5" stroke="#f0c"/><path d="M6 7h7.5m7 0h10" stroke="#00ffd5"/><path d="M8.5 9h7m11 0H34m5 0h20m11.5 0H81m19 0h10m15 0h5m6 0h7.5m7.5 0h7.5" stroke="#f0c"/><path d="M5 11h7m11 0h7m6 0h20m8.5 0h16m13 0h16m11.5 0h6m3.5 0h11m4 0H157" stroke="#00ffd5"/><path d="M8 13h7m11 0h7m5 0h21m7 0h20m9 0h20m9 0h37" stroke="#f0c"/><path d="M4 15h7m10 0h9m15 0h9m7 0h8m7 0h7m7 0h8m7 0h7m8 0h38" stroke="#00ffd5"/><path d="M7 17h7m5 0h11m17 0h9m8 0h7m9 0h7m6 0h7m9 0h7m7 0h8m7 0h8m8 0h7" stroke="#f0c"/><path d="M3.5 19h23m15 0h8M60 19h6.5M77 19h7m5 0h7m10 0h7m7 0h6.5m8.5 0h7m8.5 0h6.5" stroke="#00ffd5"/><path d="M6.5 21h21m16 0h8M63 21h6m11 0h7m5 0h6.5m11 0h6.5m6.5 0h6.5m9 0h6.5m8.5 0h7" stroke="#f0c"/><path d="M3 23h16.5m19 0h7M59 23h7m11 0h6m6 0h6m11 0h6.5m6.5 0h6.5m8.5 0h7m9 0h6" stroke="#00ffd5"/><path d="M6 25h6.5m27 0h8M63 25h6m10.5 0H86m6 0h6m10.5 0h6.5m7 0h6.5m8.5 0h7m9 0h6" stroke="#f0c"/><path d="M2 27h7m25.5 0H42m18 0h6.5m8 0H82m7 0h7m8.5 0h6.5m7 0h7m8.5 0h6.5m9 0h7" stroke="#00ffd5"/><path d="M5 29h7m24 0h20m8 0h7m3 0h10m9 0h8m3 0h8m9 0h7m9 0h6m9 0h10" stroke="#f0c"/><path d="M1.5 31H8m24 0h21m8.5 0h18M91 31h17.5m9 0h6.5m9 0h6.5m9.5 0h9" stroke="#00ffd5"/><path d="M4.5 33H11m24 0h21m11.5 0H80m16.5 0H109m11 0h7m9 0h6.5m11 0h7.5" stroke="#f0c"/></g><defs><clipPath id="a"><rect width="163" height="34" fill="#fff"/></clipPath></defs></svg>
