<svg viewBox="0 0 1466 344" fill="none" xmlns="http://www.w3.org/2000/svg" xmlns:xlink="http://www.w3.org/1999/xlink"><g clip-path="url(#a)"><mask id="b" style="mask-type:alpha" maskUnits="userSpaceOnUse" x="-81" y="7" width="1694" height="301"><path d="M-80 16h1692M-80 158h1692M-80 51h1692M-80 193h1692M-80 87h1692M-80 228l1692 1M-80 122h1692M-80 264h1692M-80 299h1692" stroke="#fff" stroke-width="17"/></mask><g mask="url(#b)" fill="#f0c"><path d="M1389 314q-53-2-53-50l1-15 14-77 1-13q1-21-21-22-32-1-44 54l-21 120h-74l24-139 1-13q1-21-21-22-32-1-44 54l-21 120h-75l41-230h64l1 45q24-49 75-50c34 0 56 18 58 50q25-48 76-50c37 0 60 21 60 57q1 9-2 19l-16 92-1 8q0 11 11 11l13-3-8 46q-16 8-39 8M934 76c60 0 103 36 103 99q0 49-23 86c-22 34-56 55-104 55-60 0-102-37-102-100q0-49 22-85c22-34 56-55 104-55m-20 185q25-1 37-27c9-16 13-39 13-58 0-27-10-46-33-46-17 0-29 12-38 28-8 16-12 39-12 57 0 28 9 46 33 46M678 76c60 0 103 36 103 99q0 49-23 86c-22 34-56 55-104 55-60 0-102-37-102-100q0-49 22-85c22-34 56-55 104-55m-21 185q26-1 38-27c9-16 13-39 13-58 0-27-10-46-33-46-18 0-29 12-38 28-8 16-12 39-12 57 0 28 9 46 32 46M531 128 407 254h107l-10 57H307l8-47 122-128h-99l10-55h191zm-352 88h-49l-16 95H38L91 8h120c64 0 102 30 102 88 0 80-62 120-134 120m-38-60h39q26 0 41-15 14-14 14-39 0-34-42-34h-36z"/></g><mask id="c" style="mask-type:alpha" maskUnits="userSpaceOnUse" x="8" y="-11" width="1694" height="301"><path d="M9-2h1692M9 140h1692M9 33h1692M9 175h1692M9 69h1692M9 210l1692 1M9 104h1692M9 246h1692M9 281h1692" stroke="#fff" stroke-width="17"/></mask><g mask="url(#c)"><g style="mix-blend-mode:multiply" fill="#00ffd5"><path d="M1360 314q-53-2-53-50l1-15 14-77 1-13q1-21-21-22-32-1-44 54l-21 120h-74l24-139 2-13q0-21-22-22-32-1-44 54l-21 120h-75l41-230h64l1 45q25-49 75-50 54 1 58 50 25-48 76-50 59 2 60 57l-1 19-17 92-1 8q-1 11 11 11l13-3-8 46q-15 8-39 8M906 76c59 0 102 36 102 99q0 49-23 86c-21 34-56 55-104 55-60 0-102-37-102-100q0-49 23-85c21-34 55-55 104-55m-21 185q25-1 37-27c9-16 13-39 13-58 0-27-10-46-33-46-17 0-29 12-38 28-8 16-12 39-12 57 0 28 10 46 33 46M649 76c60 0 103 36 103 99q0 49-23 86c-22 34-56 55-104 55-60 0-102-37-102-100q0-49 22-85c22-34 56-55 104-55m-21 185q26-1 38-27c9-16 13-39 13-58 0-27-10-46-33-46-18 0-29 12-38 28-8 16-12 39-12 57 0 28 9 46 32 46M502 128 378 254h107l-10 57H278l8-47 122-128h-99l10-55h192zm-351 88h-49l-17 95H9L63 8h119c64 0 102 30 102 88 0 80-62 120-133 120m-39-60h39q26 0 41-15 14-14 14-39 0-34-42-34h-36z"/></g></g></g><defs><clipPath id="a"><rect width="1466" height="344" fill="#fff"/></clipPath></defs></svg>
