<svg xmlns="http://www.w3.org/2000/svg" width="900" height="420" font-family="-apple-system,Segoe UI,Roboto,sans-serif">
<rect width="900" height="420" fill="#fff"/>
<text x="60" y="28" font-size="18" font-weight="700" fill="#111">Psalm ⇆ pzoom parity score</text>
<text x="60" y="44" font-size="12" fill="#666">recall × precision, mass-weighted over in-scope Psalm files — 65 commits (oldest → newest)</text>
<line x1="60" y1="360.0" x2="870" y2="360.0" stroke="#eee"/>
<text x="52" y="364.0" font-size="11" fill="#888" text-anchor="end">11</text>
<line x1="60" y1="303.6" x2="870" y2="303.6" stroke="#eee"/>
<text x="52" y="307.6" font-size="11" fill="#888" text-anchor="end">13</text>
<line x1="60" y1="247.3" x2="870" y2="247.3" stroke="#eee"/>
<text x="52" y="251.3" font-size="11" fill="#888" text-anchor="end">15</text>
<line x1="60" y1="190.9" x2="870" y2="190.9" stroke="#eee"/>
<text x="52" y="194.9" font-size="11" fill="#888" text-anchor="end">17</text>
<line x1="60" y1="134.5" x2="870" y2="134.5" stroke="#eee"/>
<text x="52" y="138.5" font-size="11" fill="#888" text-anchor="end">19</text>
<line x1="60" y1="78.2" x2="870" y2="78.2" stroke="#eee"/>
<text x="52" y="82.2" font-size="11" fill="#888" text-anchor="end">21</text>
<line x1="60" y1="50" x2="60" y2="360" stroke="#bbb"/>
<line x1="60" y1="360" x2="870" y2="360" stroke="#bbb"/>
<path d="M 60.0,316.9 L 72.7,307.6 L 85.3,305.6 L 98.0,305.6 L 110.6,304.2 L 123.3,302.2 L 135.9,297.7 L 148.6,297.7 L 161.2,297.7 L 173.9,298.3 L 186.6,298.3 L 199.2,296.3 L 211.9,290.4 L 224.5,288.7 L 237.2,288.7 L 249.8,288.7 L 262.5,285.9 L 275.2,285.9 L 287.8,285.9 L 300.5,285.9 L 313.1,285.9 L 325.8,285.3 L 338.4,278.8 L 351.1,278.0 L 363.8,251.8 L 376.4,234.9 L 389.1,232.3 L 401.7,223.6 L 414.4,219.1 L 427.0,217.7 L 439.7,211.2 L 452.3,210.6 L 465.0,209.8 L 477.7,198.8 L 490.3,194.3 L 503.0,191.5 L 515.6,191.5 L 528.3,97.9 L 540.9,97.9 L 553.6,98.5 L 566.2,97.1 L 578.9,96.5 L 591.6,96.5 L 604.2,96.5 L 616.9,96.5 L 629.5,96.5 L 642.2,96.5 L 654.8,96.5 L 667.5,96.5 L 680.2,96.5 L 692.8,96.5 L 705.5,96.5 L 718.1,96.5 L 730.8,95.1 L 743.4,95.1 L 756.1,93.1 L 768.8,93.1 L 781.4,93.1 L 794.1,93.1 L 806.7,91.4 L 819.4,88.0 L 832.0,88.0 L 844.7,88.0 L 857.3,88.0 L 870.0,88.0" fill="none" stroke="#dc2626" stroke-width="2.2"/>
<circle cx="60.0" cy="316.9" r="2" fill="#dc2626"/><circle cx="72.7" cy="307.6" r="2" fill="#dc2626"/><circle cx="85.3" cy="305.6" r="2" fill="#dc2626"/><circle cx="98.0" cy="305.6" r="2" fill="#dc2626"/><circle cx="110.6" cy="304.2" r="2" fill="#dc2626"/><circle cx="123.3" cy="302.2" r="2" fill="#dc2626"/><circle cx="135.9" cy="297.7" r="2" fill="#dc2626"/><circle cx="148.6" cy="297.7" r="2" fill="#dc2626"/><circle cx="161.2" cy="297.7" r="2" fill="#dc2626"/><circle cx="173.9" cy="298.3" r="2" fill="#dc2626"/><circle cx="186.6" cy="298.3" r="2" fill="#dc2626"/><circle cx="199.2" cy="296.3" r="2" fill="#dc2626"/><circle cx="211.9" cy="290.4" r="2" fill="#dc2626"/><circle cx="224.5" cy="288.7" r="2" fill="#dc2626"/><circle cx="237.2" cy="288.7" r="2" fill="#dc2626"/><circle cx="249.8" cy="288.7" r="2" fill="#dc2626"/><circle cx="262.5" cy="285.9" r="2" fill="#dc2626"/><circle cx="275.2" cy="285.9" r="2" fill="#dc2626"/><circle cx="287.8" cy="285.9" r="2" fill="#dc2626"/><circle cx="300.5" cy="285.9" r="2" fill="#dc2626"/><circle cx="313.1" cy="285.9" r="2" fill="#dc2626"/><circle cx="325.8" cy="285.3" r="2" fill="#dc2626"/><circle cx="338.4" cy="278.8" r="2" fill="#dc2626"/><circle cx="351.1" cy="278.0" r="2" fill="#dc2626"/><circle cx="363.8" cy="251.8" r="2" fill="#dc2626"/><circle cx="376.4" cy="234.9" r="2" fill="#dc2626"/><circle cx="389.1" cy="232.3" r="2" fill="#dc2626"/><circle cx="401.7" cy="223.6" r="2" fill="#dc2626"/><circle cx="414.4" cy="219.1" r="2" fill="#dc2626"/><circle cx="427.0" cy="217.7" r="2" fill="#dc2626"/><circle cx="439.7" cy="211.2" r="2" fill="#dc2626"/><circle cx="452.3" cy="210.6" r="2" fill="#dc2626"/><circle cx="465.0" cy="209.8" r="2" fill="#dc2626"/><circle cx="477.7" cy="198.8" r="2" fill="#dc2626"/><circle cx="490.3" cy="194.3" r="2" fill="#dc2626"/><circle cx="503.0" cy="191.5" r="2" fill="#dc2626"/><circle cx="515.6" cy="191.5" r="2" fill="#dc2626"/><circle cx="528.3" cy="97.9" r="2" fill="#dc2626"/><circle cx="540.9" cy="97.9" r="2" fill="#dc2626"/><circle cx="553.6" cy="98.5" r="2" fill="#dc2626"/><circle cx="566.2" cy="97.1" r="2" fill="#dc2626"/><circle cx="578.9" cy="96.5" r="2" fill="#dc2626"/><circle cx="591.6" cy="96.5" r="2" fill="#dc2626"/><circle cx="604.2" cy="96.5" r="2" fill="#dc2626"/><circle cx="616.9" cy="96.5" r="2" fill="#dc2626"/><circle cx="629.5" cy="96.5" r="2" fill="#dc2626"/><circle cx="642.2" cy="96.5" r="2" fill="#dc2626"/><circle cx="654.8" cy="96.5" r="2" fill="#dc2626"/><circle cx="667.5" cy="96.5" r="2" fill="#dc2626"/><circle cx="680.2" cy="96.5" r="2" fill="#dc2626"/><circle cx="692.8" cy="96.5" r="2" fill="#dc2626"/><circle cx="705.5" cy="96.5" r="2" fill="#dc2626"/><circle cx="718.1" cy="96.5" r="2" fill="#dc2626"/><circle cx="730.8" cy="95.1" r="2" fill="#dc2626"/><circle cx="743.4" cy="95.1" r="2" fill="#dc2626"/><circle cx="756.1" cy="93.1" r="2" fill="#dc2626"/><circle cx="768.8" cy="93.1" r="2" fill="#dc2626"/><circle cx="781.4" cy="93.1" r="2" fill="#dc2626"/><circle cx="794.1" cy="93.1" r="2" fill="#dc2626"/><circle cx="806.7" cy="91.4" r="2" fill="#dc2626"/><circle cx="819.4" cy="88.0" r="2" fill="#dc2626"/><circle cx="832.0" cy="88.0" r="2" fill="#dc2626"/><circle cx="844.7" cy="88.0" r="2" fill="#dc2626"/><circle cx="857.3" cy="88.0" r="2" fill="#dc2626"/><circle cx="870.0" cy="88.0" r="2" fill="#dc2626"/>
<text x="864.0" y="80.0" font-size="12" font-weight="700" fill="#dc2626" text-anchor="end">20.6</text>
<text x="465.0" y="405" font-size="12" fill="#444" text-anchor="middle">commit (oldest → newest)</text>
</svg>