<svg xmlns="http://www.w3.org/2000/svg" width="900" height="420" font-family="-apple-system,Segoe UI,Roboto,sans-serif">
<rect width="900" height="420" fill="#fff"/>
<text x="60" y="28" font-size="18" font-weight="700" fill="#111">Psalm ⇆ pzoom parity score</text>
<text x="60" y="44" font-size="12" fill="#666">recall × precision, mass-weighted over in-scope Psalm files — 165 commits (oldest → newest)</text>
<line x1="60" y1="360.0" x2="870" y2="360.0" stroke="#eee"/>
<text x="52" y="364.0" font-size="11" fill="#888" text-anchor="end">7</text>
<line x1="60" y1="323.5" x2="870" y2="323.5" stroke="#eee"/>
<text x="52" y="327.5" font-size="11" fill="#888" text-anchor="end">9</text>
<line x1="60" y1="287.1" x2="870" y2="287.1" stroke="#eee"/>
<text x="52" y="291.1" font-size="11" fill="#888" text-anchor="end">11</text>
<line x1="60" y1="250.6" x2="870" y2="250.6" stroke="#eee"/>
<text x="52" y="254.6" font-size="11" fill="#888" text-anchor="end">13</text>
<line x1="60" y1="214.1" x2="870" y2="214.1" stroke="#eee"/>
<text x="52" y="218.1" font-size="11" fill="#888" text-anchor="end">15</text>
<line x1="60" y1="177.6" x2="870" y2="177.6" stroke="#eee"/>
<text x="52" y="181.6" font-size="11" fill="#888" text-anchor="end">17</text>
<line x1="60" y1="141.2" x2="870" y2="141.2" stroke="#eee"/>
<text x="52" y="145.2" font-size="11" fill="#888" text-anchor="end">19</text>
<line x1="60" y1="104.7" x2="870" y2="104.7" stroke="#eee"/>
<text x="52" y="108.7" font-size="11" fill="#888" text-anchor="end">21</text>
<line x1="60" y1="68.2" x2="870" y2="68.2" stroke="#eee"/>
<text x="52" y="72.2" font-size="11" fill="#888" text-anchor="end">23</text>
<line x1="60" y1="50" x2="60" y2="360" stroke="#bbb"/>
<line x1="60" y1="360" x2="870" y2="360" stroke="#bbb"/>
<path d="M 60.0,331.6 L 64.9,331.2 L 69.9,329.9 L 74.8,327.4 L 79.8,327.4 L 84.7,327.4 L 89.6,326.4 L 94.6,321.9 L 99.5,321.0 L 104.5,321.0 L 109.4,318.4 L 114.3,317.1 L 119.3,315.5 L 124.2,315.5 L 129.1,312.6 L 134.1,310.8 L 139.0,306.9 L 144.0,306.6 L 148.9,306.6 L 153.8,296.7 L 158.8,296.7 L 163.7,294.7 L 168.7,292.5 L 173.6,288.3 L 178.5,287.4 L 183.5,287.4 L 188.4,279.4 L 193.4,277.4 L 198.3,276.5 L 203.2,273.6 L 208.2,268.5 L 213.1,266.3 L 218.0,265.9 L 223.0,263.7 L 227.9,257.9 L 232.9,256.6 L 237.8,256.6 L 242.7,255.7 L 247.7,255.7 L 252.6,255.3 L 257.6,254.8 L 262.5,254.1 L 267.4,248.0 L 272.4,247.1 L 277.3,247.1 L 282.3,245.5 L 287.2,243.8 L 292.1,240.4 L 297.1,240.4 L 302.0,240.4 L 307.0,240.9 L 311.9,240.0 L 316.8,239.1 L 321.8,233.3 L 326.7,231.4 L 331.6,231.1 L 336.6,231.1 L 341.5,229.8 L 346.5,229.8 L 351.4,229.8 L 356.3,229.8 L 361.3,229.8 L 366.2,228.9 L 371.2,224.7 L 376.1,224.3 L 381.0,207.4 L 386.0,194.6 L 390.9,193.7 L 395.9,187.9 L 400.8,184.9 L 405.7,183.7 L 410.7,179.3 L 415.6,178.9 L 420.5,178.0 L 425.5,168.7 L 430.4,165.8 L 435.4,164.5 L 440.3,164.5 L 445.2,102.5 L 450.2,102.5 L 455.1,102.5 L 460.1,102.2 L 465.0,101.8 L 469.9,101.8 L 474.9,101.8 L 479.8,101.8 L 484.8,101.8 L 489.7,101.8 L 494.6,101.8 L 499.6,101.8 L 504.5,101.8 L 509.5,101.8 L 514.4,101.8 L 519.3,101.8 L 524.3,100.9 L 529.2,100.9 L 534.1,99.6 L 539.1,99.6 L 544.0,99.6 L 549.0,99.6 L 553.9,99.2 L 558.8,98.0 L 563.8,98.0 L 568.7,98.0 L 573.7,96.7 L 578.6,95.4 L 583.5,95.0 L 588.5,95.0 L 593.4,95.0 L 598.4,94.5 L 603.3,94.1 L 608.2,94.1 L 613.2,94.1 L 618.1,94.1 L 623.0,94.1 L 628.0,89.0 L 632.9,89.0 L 637.9,88.7 L 642.8,80.5 L 647.7,79.2 L 652.7,78.8 L 657.6,78.8 L 662.6,78.8 L 667.5,78.8 L 672.4,77.2 L 677.4,77.2 L 682.3,76.8 L 687.3,75.5 L 692.2,75.5 L 697.1,75.5 L 702.1,74.6 L 707.0,74.6 L 712.0,74.3 L 716.9,74.3 L 721.8,74.3 L 726.8,74.3 L 731.7,74.3 L 736.6,74.3 L 741.6,74.3 L 746.5,74.3 L 751.5,73.7 L 756.4,73.7 L 761.3,73.7 L 766.3,73.7 L 771.2,73.7 L 776.2,73.7 L 781.1,73.7 L 786.0,73.7 L 791.0,73.7 L 795.9,73.3 L 800.9,73.3 L 805.8,73.3 L 810.7,73.0 L 815.7,73.0 L 820.6,72.4 L 825.5,72.4 L 830.5,72.4 L 835.4,72.4 L 840.4,72.4 L 845.3,72.1 L 850.2,72.1 L 855.2,72.1 L 860.1,72.1 L 865.1,71.7 L 870.0,71.7" fill="none" stroke="#dc2626" stroke-width="2.2"/>
<circle cx="60.0" cy="331.6" r="2" fill="#dc2626"/><circle cx="64.9" cy="331.2" r="2" fill="#dc2626"/><circle cx="69.9" cy="329.9" r="2" fill="#dc2626"/><circle cx="74.8" cy="327.4" r="2" fill="#dc2626"/><circle cx="79.8" cy="327.4" r="2" fill="#dc2626"/><circle cx="84.7" cy="327.4" r="2" fill="#dc2626"/><circle cx="89.6" cy="326.4" r="2" fill="#dc2626"/><circle cx="94.6" cy="321.9" r="2" fill="#dc2626"/><circle cx="99.5" cy="321.0" r="2" fill="#dc2626"/><circle cx="104.5" cy="321.0" r="2" fill="#dc2626"/><circle cx="109.4" cy="318.4" r="2" fill="#dc2626"/><circle cx="114.3" cy="317.1" r="2" fill="#dc2626"/><circle cx="119.3" cy="315.5" r="2" fill="#dc2626"/><circle cx="124.2" cy="315.5" r="2" fill="#dc2626"/><circle cx="129.1" cy="312.6" r="2" fill="#dc2626"/><circle cx="134.1" cy="310.8" r="2" fill="#dc2626"/><circle cx="139.0" cy="306.9" r="2" fill="#dc2626"/><circle cx="144.0" cy="306.6" r="2" fill="#dc2626"/><circle cx="148.9" cy="306.6" r="2" fill="#dc2626"/><circle cx="153.8" cy="296.7" r="2" fill="#dc2626"/><circle cx="158.8" cy="296.7" r="2" fill="#dc2626"/><circle cx="163.7" cy="294.7" r="2" fill="#dc2626"/><circle cx="168.7" cy="292.5" r="2" fill="#dc2626"/><circle cx="173.6" cy="288.3" r="2" fill="#dc2626"/><circle cx="178.5" cy="287.4" r="2" fill="#dc2626"/><circle cx="183.5" cy="287.4" r="2" fill="#dc2626"/><circle cx="188.4" cy="279.4" r="2" fill="#dc2626"/><circle cx="193.4" cy="277.4" r="2" fill="#dc2626"/><circle cx="198.3" cy="276.5" r="2" fill="#dc2626"/><circle cx="203.2" cy="273.6" r="2" fill="#dc2626"/><circle cx="208.2" cy="268.5" r="2" fill="#dc2626"/><circle cx="213.1" cy="266.3" r="2" fill="#dc2626"/><circle cx="218.0" cy="265.9" r="2" fill="#dc2626"/><circle cx="223.0" cy="263.7" r="2" fill="#dc2626"/><circle cx="227.9" cy="257.9" r="2" fill="#dc2626"/><circle cx="232.9" cy="256.6" r="2" fill="#dc2626"/><circle cx="237.8" cy="256.6" r="2" fill="#dc2626"/><circle cx="242.7" cy="255.7" r="2" fill="#dc2626"/><circle cx="247.7" cy="255.7" r="2" fill="#dc2626"/><circle cx="252.6" cy="255.3" r="2" fill="#dc2626"/><circle cx="257.6" cy="254.8" r="2" fill="#dc2626"/><circle cx="262.5" cy="254.1" r="2" fill="#dc2626"/><circle cx="267.4" cy="248.0" r="2" fill="#dc2626"/><circle cx="272.4" cy="247.1" r="2" fill="#dc2626"/><circle cx="277.3" cy="247.1" r="2" fill="#dc2626"/><circle cx="282.3" cy="245.5" r="2" fill="#dc2626"/><circle cx="287.2" cy="243.8" r="2" fill="#dc2626"/><circle cx="292.1" cy="240.4" r="2" fill="#dc2626"/><circle cx="297.1" cy="240.4" r="2" fill="#dc2626"/><circle cx="302.0" cy="240.4" r="2" fill="#dc2626"/><circle cx="307.0" cy="240.9" r="2" fill="#dc2626"/><circle cx="311.9" cy="240.0" r="2" fill="#dc2626"/><circle cx="316.8" cy="239.1" r="2" fill="#dc2626"/><circle cx="321.8" cy="233.3" r="2" fill="#dc2626"/><circle cx="326.7" cy="231.4" r="2" fill="#dc2626"/><circle cx="331.6" cy="231.1" r="2" fill="#dc2626"/><circle cx="336.6" cy="231.1" r="2" fill="#dc2626"/><circle cx="341.5" cy="229.8" r="2" fill="#dc2626"/><circle cx="346.5" cy="229.8" r="2" fill="#dc2626"/><circle cx="351.4" cy="229.8" r="2" fill="#dc2626"/><circle cx="356.3" cy="229.8" r="2" fill="#dc2626"/><circle cx="361.3" cy="229.8" r="2" fill="#dc2626"/><circle cx="366.2" cy="228.9" r="2" fill="#dc2626"/><circle cx="371.2" cy="224.7" r="2" fill="#dc2626"/><circle cx="376.1" cy="224.3" r="2" fill="#dc2626"/><circle cx="381.0" cy="207.4" r="2" fill="#dc2626"/><circle cx="386.0" cy="194.6" r="2" fill="#dc2626"/><circle cx="390.9" cy="193.7" r="2" fill="#dc2626"/><circle cx="395.9" cy="187.9" r="2" fill="#dc2626"/><circle cx="400.8" cy="184.9" r="2" fill="#dc2626"/><circle cx="405.7" cy="183.7" r="2" fill="#dc2626"/><circle cx="410.7" cy="179.3" r="2" fill="#dc2626"/><circle cx="415.6" cy="178.9" r="2" fill="#dc2626"/><circle cx="420.5" cy="178.0" r="2" fill="#dc2626"/><circle cx="425.5" cy="168.7" r="2" fill="#dc2626"/><circle cx="430.4" cy="165.8" r="2" fill="#dc2626"/><circle cx="435.4" cy="164.5" r="2" fill="#dc2626"/><circle cx="440.3" cy="164.5" r="2" fill="#dc2626"/><circle cx="445.2" cy="102.5" r="2" fill="#dc2626"/><circle cx="450.2" cy="102.5" r="2" fill="#dc2626"/><circle cx="455.1" cy="102.5" r="2" fill="#dc2626"/><circle cx="460.1" cy="102.2" r="2" fill="#dc2626"/><circle cx="465.0" cy="101.8" r="2" fill="#dc2626"/><circle cx="469.9" cy="101.8" r="2" fill="#dc2626"/><circle cx="474.9" cy="101.8" r="2" fill="#dc2626"/><circle cx="479.8" cy="101.8" r="2" fill="#dc2626"/><circle cx="484.8" cy="101.8" r="2" fill="#dc2626"/><circle cx="489.7" cy="101.8" r="2" fill="#dc2626"/><circle cx="494.6" cy="101.8" r="2" fill="#dc2626"/><circle cx="499.6" cy="101.8" r="2" fill="#dc2626"/><circle cx="504.5" cy="101.8" r="2" fill="#dc2626"/><circle cx="509.5" cy="101.8" r="2" fill="#dc2626"/><circle cx="514.4" cy="101.8" r="2" fill="#dc2626"/><circle cx="519.3" cy="101.8" r="2" fill="#dc2626"/><circle cx="524.3" cy="100.9" r="2" fill="#dc2626"/><circle cx="529.2" cy="100.9" r="2" fill="#dc2626"/><circle cx="534.1" cy="99.6" r="2" fill="#dc2626"/><circle cx="539.1" cy="99.6" r="2" fill="#dc2626"/><circle cx="544.0" cy="99.6" r="2" fill="#dc2626"/><circle cx="549.0" cy="99.6" r="2" fill="#dc2626"/><circle cx="553.9" cy="99.2" r="2" fill="#dc2626"/><circle cx="558.8" cy="98.0" r="2" fill="#dc2626"/><circle cx="563.8" cy="98.0" r="2" fill="#dc2626"/><circle cx="568.7" cy="98.0" r="2" fill="#dc2626"/><circle cx="573.7" cy="96.7" r="2" fill="#dc2626"/><circle cx="578.6" cy="95.4" r="2" fill="#dc2626"/><circle cx="583.5" cy="95.0" r="2" fill="#dc2626"/><circle cx="588.5" cy="95.0" r="2" fill="#dc2626"/><circle cx="593.4" cy="95.0" r="2" fill="#dc2626"/><circle cx="598.4" cy="94.5" r="2" fill="#dc2626"/><circle cx="603.3" cy="94.1" r="2" fill="#dc2626"/><circle cx="608.2" cy="94.1" r="2" fill="#dc2626"/><circle cx="613.2" cy="94.1" r="2" fill="#dc2626"/><circle cx="618.1" cy="94.1" r="2" fill="#dc2626"/><circle cx="623.0" cy="94.1" r="2" fill="#dc2626"/><circle cx="628.0" cy="89.0" r="2" fill="#dc2626"/><circle cx="632.9" cy="89.0" r="2" fill="#dc2626"/><circle cx="637.9" cy="88.7" r="2" fill="#dc2626"/><circle cx="642.8" cy="80.5" r="2" fill="#dc2626"/><circle cx="647.7" cy="79.2" r="2" fill="#dc2626"/><circle cx="652.7" cy="78.8" r="2" fill="#dc2626"/><circle cx="657.6" cy="78.8" r="2" fill="#dc2626"/><circle cx="662.6" cy="78.8" r="2" fill="#dc2626"/><circle cx="667.5" cy="78.8" r="2" fill="#dc2626"/><circle cx="672.4" cy="77.2" r="2" fill="#dc2626"/><circle cx="677.4" cy="77.2" r="2" fill="#dc2626"/><circle cx="682.3" cy="76.8" r="2" fill="#dc2626"/><circle cx="687.3" cy="75.5" r="2" fill="#dc2626"/><circle cx="692.2" cy="75.5" r="2" fill="#dc2626"/><circle cx="697.1" cy="75.5" r="2" fill="#dc2626"/><circle cx="702.1" cy="74.6" r="2" fill="#dc2626"/><circle cx="707.0" cy="74.6" r="2" fill="#dc2626"/><circle cx="712.0" cy="74.3" r="2" fill="#dc2626"/><circle cx="716.9" cy="74.3" r="2" fill="#dc2626"/><circle cx="721.8" cy="74.3" r="2" fill="#dc2626"/><circle cx="726.8" cy="74.3" r="2" fill="#dc2626"/><circle cx="731.7" cy="74.3" r="2" fill="#dc2626"/><circle cx="736.6" cy="74.3" r="2" fill="#dc2626"/><circle cx="741.6" cy="74.3" r="2" fill="#dc2626"/><circle cx="746.5" cy="74.3" r="2" fill="#dc2626"/><circle cx="751.5" cy="73.7" r="2" fill="#dc2626"/><circle cx="756.4" cy="73.7" r="2" fill="#dc2626"/><circle cx="761.3" cy="73.7" r="2" fill="#dc2626"/><circle cx="766.3" cy="73.7" r="2" fill="#dc2626"/><circle cx="771.2" cy="73.7" r="2" fill="#dc2626"/><circle cx="776.2" cy="73.7" r="2" fill="#dc2626"/><circle cx="781.1" cy="73.7" r="2" fill="#dc2626"/><circle cx="786.0" cy="73.7" r="2" fill="#dc2626"/><circle cx="791.0" cy="73.7" r="2" fill="#dc2626"/><circle cx="795.9" cy="73.3" r="2" fill="#dc2626"/><circle cx="800.9" cy="73.3" r="2" fill="#dc2626"/><circle cx="805.8" cy="73.3" r="2" fill="#dc2626"/><circle cx="810.7" cy="73.0" r="2" fill="#dc2626"/><circle cx="815.7" cy="73.0" r="2" fill="#dc2626"/><circle cx="820.6" cy="72.4" r="2" fill="#dc2626"/><circle cx="825.5" cy="72.4" r="2" fill="#dc2626"/><circle cx="830.5" cy="72.4" r="2" fill="#dc2626"/><circle cx="835.4" cy="72.4" r="2" fill="#dc2626"/><circle cx="840.4" cy="72.4" r="2" fill="#dc2626"/><circle cx="845.3" cy="72.1" r="2" fill="#dc2626"/><circle cx="850.2" cy="72.1" r="2" fill="#dc2626"/><circle cx="855.2" cy="72.1" r="2" fill="#dc2626"/><circle cx="860.1" cy="72.1" r="2" fill="#dc2626"/><circle cx="865.1" cy="71.7" r="2" fill="#dc2626"/><circle cx="870.0" cy="71.7" r="2" fill="#dc2626"/>
<text x="864.0" y="63.7" font-size="12" font-weight="700" fill="#dc2626" text-anchor="end">22.8</text>
<text x="465.0" y="405" font-size="12" fill="#444" text-anchor="middle">commit (oldest → newest)</text>
</svg>