<svg xmlns="http://www.w3.org/2000/svg" width="1180" height="600" font-family="-apple-system,Segoe UI,Roboto,sans-serif">
<rect width="1180" height="600" fill="#fff"/>
<text x="70" y="28" font-size="18" font-weight="700" fill="#111">Psalm ⇆ pzoom parity over 166 commits</text>
<text x="70" y="46" font-size="12" fill="#666">Method-level construct-reference recall (HEAD scorer + fixed mapping replayed over history)</text>
<line x1="70" y1="490.0" x2="940" y2="490.0" stroke="#eee"/>
<text x="60" y="494.0" font-size="11" fill="#888" text-anchor="end">0</text>
<line x1="70" y1="404.0" x2="940" y2="404.0" stroke="#eee"/>
<text x="60" y="408.0" font-size="11" fill="#888" text-anchor="end">20</text>
<line x1="70" y1="318.0" x2="940" y2="318.0" stroke="#eee"/>
<text x="60" y="322.0" font-size="11" fill="#888" text-anchor="end">40</text>
<line x1="70" y1="232.0" x2="940" y2="232.0" stroke="#eee"/>
<text x="60" y="236.0" font-size="11" fill="#888" text-anchor="end">60</text>
<line x1="70" y1="146.0" x2="940" y2="146.0" stroke="#eee"/>
<text x="60" y="150.0" font-size="11" fill="#888" text-anchor="end">80</text>
<line x1="70" y1="60.0" x2="940" y2="60.0" stroke="#eee"/>
<text x="60" y="64.0" font-size="11" fill="#888" text-anchor="end">100</text>
<line x1="70" y1="60" x2="70" y2="490" stroke="#bbb"/>
<line x1="70" y1="490" x2="940" y2="490" stroke="#bbb"/>
<line x1="70.0" y1="490" x2="70.0" y2="495" stroke="#bbb"/>
<text x="70.0" y="510" font-size="10" fill="#666" text-anchor="end" transform="rotate(-45 70.0 510)">0:e4ff13d</text>
<line x1="96.4" y1="490" x2="96.4" y2="495" stroke="#bbb"/>
<text x="96.4" y="510" font-size="10" fill="#666" text-anchor="end" transform="rotate(-45 96.4 510)">5:4fcf53d</text>
<line x1="122.7" y1="490" x2="122.7" y2="495" stroke="#bbb"/>
<text x="122.7" y="510" font-size="10" fill="#666" text-anchor="end" transform="rotate(-45 122.7 510)">10:681c4da</text>
<line x1="149.1" y1="490" x2="149.1" y2="495" stroke="#bbb"/>
<text x="149.1" y="510" font-size="10" fill="#666" text-anchor="end" transform="rotate(-45 149.1 510)">15:6e600ac</text>
<line x1="175.5" y1="490" x2="175.5" y2="495" stroke="#bbb"/>
<text x="175.5" y="510" font-size="10" fill="#666" text-anchor="end" transform="rotate(-45 175.5 510)">20:c881d2f</text>
<line x1="201.8" y1="490" x2="201.8" y2="495" stroke="#bbb"/>
<text x="201.8" y="510" font-size="10" fill="#666" text-anchor="end" transform="rotate(-45 201.8 510)">25:e571208</text>
<line x1="228.2" y1="490" x2="228.2" y2="495" stroke="#bbb"/>
<text x="228.2" y="510" font-size="10" fill="#666" text-anchor="end" transform="rotate(-45 228.2 510)">30:8d2a433</text>
<line x1="254.5" y1="490" x2="254.5" y2="495" stroke="#bbb"/>
<text x="254.5" y="510" font-size="10" fill="#666" text-anchor="end" transform="rotate(-45 254.5 510)">35:a06c4c2</text>
<line x1="280.9" y1="490" x2="280.9" y2="495" stroke="#bbb"/>
<text x="280.9" y="510" font-size="10" fill="#666" text-anchor="end" transform="rotate(-45 280.9 510)">40:38d54f5</text>
<line x1="307.3" y1="490" x2="307.3" y2="495" stroke="#bbb"/>
<text x="307.3" y="510" font-size="10" fill="#666" text-anchor="end" transform="rotate(-45 307.3 510)">45:42f2ac9</text>
<line x1="333.6" y1="490" x2="333.6" y2="495" stroke="#bbb"/>
<text x="333.6" y="510" font-size="10" fill="#666" text-anchor="end" transform="rotate(-45 333.6 510)">50:812367a</text>
<line x1="360.0" y1="490" x2="360.0" y2="495" stroke="#bbb"/>
<text x="360.0" y="510" font-size="10" fill="#666" text-anchor="end" transform="rotate(-45 360.0 510)">55:92a0ccd</text>
<line x1="386.4" y1="490" x2="386.4" y2="495" stroke="#bbb"/>
<text x="386.4" y="510" font-size="10" fill="#666" text-anchor="end" transform="rotate(-45 386.4 510)">60:15bf998</text>
<line x1="412.7" y1="490" x2="412.7" y2="495" stroke="#bbb"/>
<text x="412.7" y="510" font-size="10" fill="#666" text-anchor="end" transform="rotate(-45 412.7 510)">65:dbacabf</text>
<line x1="439.1" y1="490" x2="439.1" y2="495" stroke="#bbb"/>
<text x="439.1" y="510" font-size="10" fill="#666" text-anchor="end" transform="rotate(-45 439.1 510)">70:8097ef5</text>
<line x1="465.5" y1="490" x2="465.5" y2="495" stroke="#bbb"/>
<text x="465.5" y="510" font-size="10" fill="#666" text-anchor="end" transform="rotate(-45 465.5 510)">75:4683cb6</text>
<line x1="491.8" y1="490" x2="491.8" y2="495" stroke="#bbb"/>
<text x="491.8" y="510" font-size="10" fill="#666" text-anchor="end" transform="rotate(-45 491.8 510)">80:e20345e</text>
<line x1="518.2" y1="490" x2="518.2" y2="495" stroke="#bbb"/>
<text x="518.2" y="510" font-size="10" fill="#666" text-anchor="end" transform="rotate(-45 518.2 510)">85:78fc8f9</text>
<line x1="544.5" y1="490" x2="544.5" y2="495" stroke="#bbb"/>
<text x="544.5" y="510" font-size="10" fill="#666" text-anchor="end" transform="rotate(-45 544.5 510)">90:559a6c7</text>
<line x1="570.9" y1="490" x2="570.9" y2="495" stroke="#bbb"/>
<text x="570.9" y="510" font-size="10" fill="#666" text-anchor="end" transform="rotate(-45 570.9 510)">95:910ea0c</text>
<line x1="597.3" y1="490" x2="597.3" y2="495" stroke="#bbb"/>
<text x="597.3" y="510" font-size="10" fill="#666" text-anchor="end" transform="rotate(-45 597.3 510)">100:abdc3a3</text>
<line x1="623.6" y1="490" x2="623.6" y2="495" stroke="#bbb"/>
<text x="623.6" y="510" font-size="10" fill="#666" text-anchor="end" transform="rotate(-45 623.6 510)">105:261622d</text>
<line x1="650.0" y1="490" x2="650.0" y2="495" stroke="#bbb"/>
<text x="650.0" y="510" font-size="10" fill="#666" text-anchor="end" transform="rotate(-45 650.0 510)">110:cef54d3</text>
<line x1="676.4" y1="490" x2="676.4" y2="495" stroke="#bbb"/>
<text x="676.4" y="510" font-size="10" fill="#666" text-anchor="end" transform="rotate(-45 676.4 510)">115:1f7a459</text>
<line x1="702.7" y1="490" x2="702.7" y2="495" stroke="#bbb"/>
<text x="702.7" y="510" font-size="10" fill="#666" text-anchor="end" transform="rotate(-45 702.7 510)">120:c129ef0</text>
<line x1="729.1" y1="490" x2="729.1" y2="495" stroke="#bbb"/>
<text x="729.1" y="510" font-size="10" fill="#666" text-anchor="end" transform="rotate(-45 729.1 510)">125:8b97376</text>
<line x1="755.5" y1="490" x2="755.5" y2="495" stroke="#bbb"/>
<text x="755.5" y="510" font-size="10" fill="#666" text-anchor="end" transform="rotate(-45 755.5 510)">130:efb9ef3</text>
<line x1="781.8" y1="490" x2="781.8" y2="495" stroke="#bbb"/>
<text x="781.8" y="510" font-size="10" fill="#666" text-anchor="end" transform="rotate(-45 781.8 510)">135:bdee0a2</text>
<line x1="808.2" y1="490" x2="808.2" y2="495" stroke="#bbb"/>
<text x="808.2" y="510" font-size="10" fill="#666" text-anchor="end" transform="rotate(-45 808.2 510)">140:31f5e66</text>
<line x1="834.5" y1="490" x2="834.5" y2="495" stroke="#bbb"/>
<text x="834.5" y="510" font-size="10" fill="#666" text-anchor="end" transform="rotate(-45 834.5 510)">145:6ce8b9d</text>
<line x1="860.9" y1="490" x2="860.9" y2="495" stroke="#bbb"/>
<text x="860.9" y="510" font-size="10" fill="#666" text-anchor="end" transform="rotate(-45 860.9 510)">150:822b821</text>
<line x1="887.3" y1="490" x2="887.3" y2="495" stroke="#bbb"/>
<text x="887.3" y="510" font-size="10" fill="#666" text-anchor="end" transform="rotate(-45 887.3 510)">155:29686e2</text>
<line x1="913.6" y1="490" x2="913.6" y2="495" stroke="#bbb"/>
<text x="913.6" y="510" font-size="10" fill="#666" text-anchor="end" transform="rotate(-45 913.6 510)">160:459bfe6</text>
<line x1="940.0" y1="490" x2="940.0" y2="495" stroke="#bbb"/>
<text x="940.0" y="510" font-size="10" fill="#666" text-anchor="end" transform="rotate(-45 940.0 510)">165:1193dfe</text>
<path d="M 75.3,221.1 L 80.5,221.1 L 85.8,221.1 L 91.1,220.2 L 96.4,220.2 L 101.6,220.2 L 106.9,220.2 L 112.2,218.6 L 117.5,218.6 L 122.7,218.6 L 128.0,218.6 L 133.3,218.6 L 138.5,218.6 L 143.8,218.6 L 149.1,218.6 L 154.4,218.6 L 159.6,218.6 L 164.9,218.6 L 170.2,218.6 L 175.5,218.6 L 180.7,218.6 L 186.0,218.6 L 191.3,218.6 L 196.5,218.6 L 201.8,218.6 L 207.1,218.6 L 212.4,218.6 L 217.6,217.4 L 222.9,217.4 L 228.2,217.4 L 233.5,217.4 L 238.7,217.4 L 244.0,217.4 L 249.3,217.4 L 254.5,217.4 L 259.8,217.4 L 265.1,217.4 L 270.4,217.4 L 275.6,217.4 L 280.9,217.4 L 286.2,217.4 L 291.5,217.4 L 296.7,217.4 L 302.0,217.4 L 307.3,217.4 L 312.5,217.4 L 317.8,217.4 L 323.1,214.7 L 328.4,214.7 L 333.6,214.7 L 338.9,214.7 L 344.2,214.7 L 349.5,214.7 L 354.7,214.7 L 360.0,214.7 L 365.3,214.7 L 370.5,214.7 L 375.8,214.7 L 381.1,214.7 L 386.4,214.7 L 391.6,214.7 L 396.9,214.7 L 402.2,214.7 L 407.5,208.1 L 412.7,208.1 L 418.0,193.9 L 423.3,183.7 L 428.5,181.9 L 433.8,181.9 L 439.1,181.9 L 444.4,171.1 L 449.6,171.1 L 454.9,171.1 L 460.2,171.1 L 465.5,171.1 L 470.7,171.1 L 476.0,171.1 L 481.3,171.1 L 486.5,124.2 L 491.8,124.2 L 497.1,124.2 L 502.4,124.2 L 507.6,124.2 L 512.9,124.2 L 518.2,124.2 L 523.5,124.2 L 528.7,124.2 L 534.0,124.2 L 539.3,124.2 L 544.5,124.2 L 549.8,124.2 L 555.1,124.2 L 560.4,124.2 L 565.6,124.2 L 570.9,124.2 L 576.2,124.2 L 581.5,124.2 L 586.7,124.2 L 592.0,124.2 L 597.3,124.2 L 602.5,124.2 L 607.8,124.2 L 613.1,124.2 L 618.4,124.2 L 623.6,124.2 L 628.9,124.2 L 634.2,124.2 L 639.5,124.2 L 644.7,124.2 L 650.0,124.2 L 655.3,124.2 L 660.5,124.2 L 665.8,124.2 L 671.1,124.2 L 676.4,124.2 L 681.6,124.2 L 686.9,124.2 L 692.2,124.2 L 697.5,124.2 L 702.7,124.2 L 708.0,124.2 L 713.3,124.2 L 718.5,124.2 L 723.8,124.2 L 729.1,124.2 L 734.4,124.2 L 739.6,124.2 L 744.9,124.2 L 750.2,124.2 L 755.5,124.2 L 760.7,124.2 L 766.0,124.2 L 771.3,124.2 L 776.5,124.2 L 781.8,124.2 L 787.1,124.2 L 792.4,124.2 L 797.6,124.2 L 802.9,124.2 L 808.2,124.2 L 813.5,124.2 L 818.7,124.2 L 824.0,124.2 L 829.3,124.2 L 834.5,124.2 L 839.8,124.2 L 845.1,124.2 L 850.4,124.2 L 855.6,124.2 L 860.9,124.2 L 866.2,124.2 L 871.5,124.2 L 876.7,124.2 L 882.0,124.2 L 887.3,124.2 L 892.5,124.2 L 897.8,124.2 L 903.1,124.2 L 908.4,124.2 L 913.6,124.2 L 918.9,124.2 L 924.2,124.2 L 929.5,124.2 L 934.7,124.2 L 940.0,124.2" fill="none" stroke="#16a34a" stroke-width="2"/><circle cx="75.3" cy="221.1" r="2.3" fill="#16a34a"/><circle cx="80.5" cy="221.1" r="2.3" fill="#16a34a"/><circle cx="85.8" cy="221.1" r="2.3" fill="#16a34a"/><circle cx="91.1" cy="220.2" r="2.3" fill="#16a34a"/><circle cx="96.4" cy="220.2" r="2.3" fill="#16a34a"/><circle cx="101.6" cy="220.2" r="2.3" fill="#16a34a"/><circle cx="106.9" cy="220.2" r="2.3" fill="#16a34a"/><circle cx="112.2" cy="218.6" r="2.3" fill="#16a34a"/><circle cx="117.5" cy="218.6" r="2.3" fill="#16a34a"/><circle cx="122.7" cy="218.6" r="2.3" fill="#16a34a"/><circle cx="128.0" cy="218.6" r="2.3" fill="#16a34a"/><circle cx="133.3" cy="218.6" r="2.3" fill="#16a34a"/><circle cx="138.5" cy="218.6" r="2.3" fill="#16a34a"/><circle cx="143.8" cy="218.6" r="2.3" fill="#16a34a"/><circle cx="149.1" cy="218.6" r="2.3" fill="#16a34a"/><circle cx="154.4" cy="218.6" r="2.3" fill="#16a34a"/><circle cx="159.6" cy="218.6" r="2.3" fill="#16a34a"/><circle cx="164.9" cy="218.6" r="2.3" fill="#16a34a"/><circle cx="170.2" cy="218.6" r="2.3" fill="#16a34a"/><circle cx="175.5" cy="218.6" r="2.3" fill="#16a34a"/><circle cx="180.7" cy="218.6" r="2.3" fill="#16a34a"/><circle cx="186.0" cy="218.6" r="2.3" fill="#16a34a"/><circle cx="191.3" cy="218.6" r="2.3" fill="#16a34a"/><circle cx="196.5" cy="218.6" r="2.3" fill="#16a34a"/><circle cx="201.8" cy="218.6" r="2.3" fill="#16a34a"/><circle cx="207.1" cy="218.6" r="2.3" fill="#16a34a"/><circle cx="212.4" cy="218.6" r="2.3" fill="#16a34a"/><circle cx="217.6" cy="217.4" r="2.3" fill="#16a34a"/><circle cx="222.9" cy="217.4" r="2.3" fill="#16a34a"/><circle cx="228.2" cy="217.4" r="2.3" fill="#16a34a"/><circle cx="233.5" cy="217.4" r="2.3" fill="#16a34a"/><circle cx="238.7" cy="217.4" r="2.3" fill="#16a34a"/><circle cx="244.0" cy="217.4" r="2.3" fill="#16a34a"/><circle cx="249.3" cy="217.4" r="2.3" fill="#16a34a"/><circle cx="254.5" cy="217.4" r="2.3" fill="#16a34a"/><circle cx="259.8" cy="217.4" r="2.3" fill="#16a34a"/><circle cx="265.1" cy="217.4" r="2.3" fill="#16a34a"/><circle cx="270.4" cy="217.4" r="2.3" fill="#16a34a"/><circle cx="275.6" cy="217.4" r="2.3" fill="#16a34a"/><circle cx="280.9" cy="217.4" r="2.3" fill="#16a34a"/><circle cx="286.2" cy="217.4" r="2.3" fill="#16a34a"/><circle cx="291.5" cy="217.4" r="2.3" fill="#16a34a"/><circle cx="296.7" cy="217.4" r="2.3" fill="#16a34a"/><circle cx="302.0" cy="217.4" r="2.3" fill="#16a34a"/><circle cx="307.3" cy="217.4" r="2.3" fill="#16a34a"/><circle cx="312.5" cy="217.4" r="2.3" fill="#16a34a"/><circle cx="317.8" cy="217.4" r="2.3" fill="#16a34a"/><circle cx="323.1" cy="214.7" r="2.3" fill="#16a34a"/><circle cx="328.4" cy="214.7" r="2.3" fill="#16a34a"/><circle cx="333.6" cy="214.7" r="2.3" fill="#16a34a"/><circle cx="338.9" cy="214.7" r="2.3" fill="#16a34a"/><circle cx="344.2" cy="214.7" r="2.3" fill="#16a34a"/><circle cx="349.5" cy="214.7" r="2.3" fill="#16a34a"/><circle cx="354.7" cy="214.7" r="2.3" fill="#16a34a"/><circle cx="360.0" cy="214.7" r="2.3" fill="#16a34a"/><circle cx="365.3" cy="214.7" r="2.3" fill="#16a34a"/><circle cx="370.5" cy="214.7" r="2.3" fill="#16a34a"/><circle cx="375.8" cy="214.7" r="2.3" fill="#16a34a"/><circle cx="381.1" cy="214.7" r="2.3" fill="#16a34a"/><circle cx="386.4" cy="214.7" r="2.3" fill="#16a34a"/><circle cx="391.6" cy="214.7" r="2.3" fill="#16a34a"/><circle cx="396.9" cy="214.7" r="2.3" fill="#16a34a"/><circle cx="402.2" cy="214.7" r="2.3" fill="#16a34a"/><circle cx="407.5" cy="208.1" r="2.3" fill="#16a34a"/><circle cx="412.7" cy="208.1" r="2.3" fill="#16a34a"/><circle cx="418.0" cy="193.9" r="2.3" fill="#16a34a"/><circle cx="423.3" cy="183.7" r="2.3" fill="#16a34a"/><circle cx="428.5" cy="181.9" r="2.3" fill="#16a34a"/><circle cx="433.8" cy="181.9" r="2.3" fill="#16a34a"/><circle cx="439.1" cy="181.9" r="2.3" fill="#16a34a"/><circle cx="444.4" cy="171.1" r="2.3" fill="#16a34a"/><circle cx="449.6" cy="171.1" r="2.3" fill="#16a34a"/><circle cx="454.9" cy="171.1" r="2.3" fill="#16a34a"/><circle cx="460.2" cy="171.1" r="2.3" fill="#16a34a"/><circle cx="465.5" cy="171.1" r="2.3" fill="#16a34a"/><circle cx="470.7" cy="171.1" r="2.3" fill="#16a34a"/><circle cx="476.0" cy="171.1" r="2.3" fill="#16a34a"/><circle cx="481.3" cy="171.1" r="2.3" fill="#16a34a"/><circle cx="486.5" cy="124.2" r="2.3" fill="#16a34a"/><circle cx="491.8" cy="124.2" r="2.3" fill="#16a34a"/><circle cx="497.1" cy="124.2" r="2.3" fill="#16a34a"/><circle cx="502.4" cy="124.2" r="2.3" fill="#16a34a"/><circle cx="507.6" cy="124.2" r="2.3" fill="#16a34a"/><circle cx="512.9" cy="124.2" r="2.3" fill="#16a34a"/><circle cx="518.2" cy="124.2" r="2.3" fill="#16a34a"/><circle cx="523.5" cy="124.2" r="2.3" fill="#16a34a"/><circle cx="528.7" cy="124.2" r="2.3" fill="#16a34a"/><circle cx="534.0" cy="124.2" r="2.3" fill="#16a34a"/><circle cx="539.3" cy="124.2" r="2.3" fill="#16a34a"/><circle cx="544.5" cy="124.2" r="2.3" fill="#16a34a"/><circle cx="549.8" cy="124.2" r="2.3" fill="#16a34a"/><circle cx="555.1" cy="124.2" r="2.3" fill="#16a34a"/><circle cx="560.4" cy="124.2" r="2.3" fill="#16a34a"/><circle cx="565.6" cy="124.2" r="2.3" fill="#16a34a"/><circle cx="570.9" cy="124.2" r="2.3" fill="#16a34a"/><circle cx="576.2" cy="124.2" r="2.3" fill="#16a34a"/><circle cx="581.5" cy="124.2" r="2.3" fill="#16a34a"/><circle cx="586.7" cy="124.2" r="2.3" fill="#16a34a"/><circle cx="592.0" cy="124.2" r="2.3" fill="#16a34a"/><circle cx="597.3" cy="124.2" r="2.3" fill="#16a34a"/><circle cx="602.5" cy="124.2" r="2.3" fill="#16a34a"/><circle cx="607.8" cy="124.2" r="2.3" fill="#16a34a"/><circle cx="613.1" cy="124.2" r="2.3" fill="#16a34a"/><circle cx="618.4" cy="124.2" r="2.3" fill="#16a34a"/><circle cx="623.6" cy="124.2" r="2.3" fill="#16a34a"/><circle cx="628.9" cy="124.2" r="2.3" fill="#16a34a"/><circle cx="634.2" cy="124.2" r="2.3" fill="#16a34a"/><circle cx="639.5" cy="124.2" r="2.3" fill="#16a34a"/><circle cx="644.7" cy="124.2" r="2.3" fill="#16a34a"/><circle cx="650.0" cy="124.2" r="2.3" fill="#16a34a"/><circle cx="655.3" cy="124.2" r="2.3" fill="#16a34a"/><circle cx="660.5" cy="124.2" r="2.3" fill="#16a34a"/><circle cx="665.8" cy="124.2" r="2.3" fill="#16a34a"/><circle cx="671.1" cy="124.2" r="2.3" fill="#16a34a"/><circle cx="676.4" cy="124.2" r="2.3" fill="#16a34a"/><circle cx="681.6" cy="124.2" r="2.3" fill="#16a34a"/><circle cx="686.9" cy="124.2" r="2.3" fill="#16a34a"/><circle cx="692.2" cy="124.2" r="2.3" fill="#16a34a"/><circle cx="697.5" cy="124.2" r="2.3" fill="#16a34a"/><circle cx="702.7" cy="124.2" r="2.3" fill="#16a34a"/><circle cx="708.0" cy="124.2" r="2.3" fill="#16a34a"/><circle cx="713.3" cy="124.2" r="2.3" fill="#16a34a"/><circle cx="718.5" cy="124.2" r="2.3" fill="#16a34a"/><circle cx="723.8" cy="124.2" r="2.3" fill="#16a34a"/><circle cx="729.1" cy="124.2" r="2.3" fill="#16a34a"/><circle cx="734.4" cy="124.2" r="2.3" fill="#16a34a"/><circle cx="739.6" cy="124.2" r="2.3" fill="#16a34a"/><circle cx="744.9" cy="124.2" r="2.3" fill="#16a34a"/><circle cx="750.2" cy="124.2" r="2.3" fill="#16a34a"/><circle cx="755.5" cy="124.2" r="2.3" fill="#16a34a"/><circle cx="760.7" cy="124.2" r="2.3" fill="#16a34a"/><circle cx="766.0" cy="124.2" r="2.3" fill="#16a34a"/><circle cx="771.3" cy="124.2" r="2.3" fill="#16a34a"/><circle cx="776.5" cy="124.2" r="2.3" fill="#16a34a"/><circle cx="781.8" cy="124.2" r="2.3" fill="#16a34a"/><circle cx="787.1" cy="124.2" r="2.3" fill="#16a34a"/><circle cx="792.4" cy="124.2" r="2.3" fill="#16a34a"/><circle cx="797.6" cy="124.2" r="2.3" fill="#16a34a"/><circle cx="802.9" cy="124.2" r="2.3" fill="#16a34a"/><circle cx="808.2" cy="124.2" r="2.3" fill="#16a34a"/><circle cx="813.5" cy="124.2" r="2.3" fill="#16a34a"/><circle cx="818.7" cy="124.2" r="2.3" fill="#16a34a"/><circle cx="824.0" cy="124.2" r="2.3" fill="#16a34a"/><circle cx="829.3" cy="124.2" r="2.3" fill="#16a34a"/><circle cx="834.5" cy="124.2" r="2.3" fill="#16a34a"/><circle cx="839.8" cy="124.2" r="2.3" fill="#16a34a"/><circle cx="845.1" cy="124.2" r="2.3" fill="#16a34a"/><circle cx="850.4" cy="124.2" r="2.3" fill="#16a34a"/><circle cx="855.6" cy="124.2" r="2.3" fill="#16a34a"/><circle cx="860.9" cy="124.2" r="2.3" fill="#16a34a"/><circle cx="866.2" cy="124.2" r="2.3" fill="#16a34a"/><circle cx="871.5" cy="124.2" r="2.3" fill="#16a34a"/><circle cx="876.7" cy="124.2" r="2.3" fill="#16a34a"/><circle cx="882.0" cy="124.2" r="2.3" fill="#16a34a"/><circle cx="887.3" cy="124.2" r="2.3" fill="#16a34a"/><circle cx="892.5" cy="124.2" r="2.3" fill="#16a34a"/><circle cx="897.8" cy="124.2" r="2.3" fill="#16a34a"/><circle cx="903.1" cy="124.2" r="2.3" fill="#16a34a"/><circle cx="908.4" cy="124.2" r="2.3" fill="#16a34a"/><circle cx="913.6" cy="124.2" r="2.3" fill="#16a34a"/><circle cx="918.9" cy="124.2" r="2.3" fill="#16a34a"/><circle cx="924.2" cy="124.2" r="2.3" fill="#16a34a"/><circle cx="929.5" cy="124.2" r="2.3" fill="#16a34a"/><circle cx="934.7" cy="124.2" r="2.3" fill="#16a34a"/><circle cx="940.0" cy="124.2" r="2.3" fill="#16a34a"/>
<path d="M 75.3,431.2 L 80.5,431.0 L 85.8,430.4 L 91.1,429.7 L 96.4,429.7 L 101.6,429.7 L 106.9,429.5 L 112.2,428.0 L 117.5,427.8 L 122.7,427.8 L 128.0,426.9 L 133.3,426.3 L 138.5,425.7 L 143.8,425.7 L 149.1,424.5 L 154.4,423.9 L 159.6,422.6 L 164.9,422.3 L 170.2,422.3 L 175.5,418.6 L 180.7,418.6 L 186.0,417.8 L 191.3,417.1 L 196.5,415.4 L 201.8,415.1 L 207.1,415.1 L 212.4,412.2 L 217.6,411.7 L 222.9,411.3 L 228.2,410.2 L 233.5,408.3 L 238.7,407.6 L 244.0,407.3 L 249.3,406.7 L 254.5,404.4 L 259.8,403.9 L 265.1,403.9 L 270.4,403.6 L 275.6,403.6 L 280.9,403.5 L 286.2,403.4 L 291.5,403.0 L 296.7,400.9 L 302.0,400.5 L 307.3,400.4 L 312.5,399.9 L 317.8,399.3 L 323.1,398.9 L 328.4,398.9 L 333.6,398.9 L 338.9,399.0 L 344.2,398.7 L 349.5,398.3 L 354.7,396.3 L 360.0,395.5 L 365.3,395.5 L 370.5,395.5 L 375.8,394.9 L 381.1,394.9 L 386.4,394.9 L 391.6,394.9 L 396.9,394.9 L 402.2,394.6 L 407.5,395.4 L 412.7,395.1 L 418.0,393.9 L 423.3,393.0 L 428.5,393.2 L 433.8,391.3 L 439.1,390.3 L 444.4,393.2 L 449.6,391.9 L 454.9,391.7 L 460.2,391.5 L 465.5,388.5 L 470.7,387.6 L 476.0,387.1 L 481.3,387.1 L 486.5,383.1 L 491.8,383.1 L 497.1,383.1 L 502.4,383.0 L 507.6,382.9 L 512.9,382.9 L 518.2,382.9 L 523.5,382.9 L 528.7,382.9 L 534.0,382.9 L 539.3,382.9 L 544.5,382.9 L 549.8,382.9 L 555.1,382.9 L 560.4,382.9 L 565.6,382.9 L 570.9,382.6 L 576.2,382.6 L 581.5,382.2 L 586.7,382.2 L 592.0,382.2 L 597.3,382.2 L 602.5,382.1 L 607.8,381.7 L 613.1,381.7 L 618.4,381.7 L 623.6,381.4 L 628.9,381.0 L 634.2,381.0 L 639.5,380.9 L 644.7,380.9 L 650.0,380.9 L 655.3,380.7 L 660.5,380.7 L 665.8,380.7 L 671.1,380.7 L 676.4,380.7 L 681.6,379.3 L 686.9,379.3 L 692.2,379.2 L 697.5,376.9 L 702.7,376.6 L 708.0,376.5 L 713.3,376.5 L 718.5,376.4 L 723.8,376.4 L 729.1,376.0 L 734.4,376.0 L 739.6,376.0 L 744.9,375.6 L 750.2,375.5 L 755.5,375.5 L 760.7,375.3 L 766.0,375.3 L 771.3,375.2 L 776.5,375.2 L 781.8,375.2 L 787.1,375.2 L 792.4,375.2 L 797.6,375.2 L 802.9,375.2 L 808.2,375.2 L 813.5,375.1 L 818.7,375.1 L 824.0,375.1 L 829.3,375.1 L 834.5,375.1 L 839.8,375.1 L 845.1,375.1 L 850.4,375.0 L 855.6,375.0 L 860.9,374.9 L 866.2,374.9 L 871.5,374.9 L 876.7,374.8 L 882.0,374.8 L 887.3,374.8 L 892.5,374.8 L 897.8,374.8 L 903.1,374.8 L 908.4,374.7 L 913.6,374.7 L 918.9,374.6 L 924.2,374.6 L 929.5,374.6 L 934.7,374.5 L 940.0,374.5" fill="none" stroke="#2563eb" stroke-width="2"/><circle cx="75.3" cy="431.2" r="2.3" fill="#2563eb"/><circle cx="80.5" cy="431.0" r="2.3" fill="#2563eb"/><circle cx="85.8" cy="430.4" r="2.3" fill="#2563eb"/><circle cx="91.1" cy="429.7" r="2.3" fill="#2563eb"/><circle cx="96.4" cy="429.7" r="2.3" fill="#2563eb"/><circle cx="101.6" cy="429.7" r="2.3" fill="#2563eb"/><circle cx="106.9" cy="429.5" r="2.3" fill="#2563eb"/><circle cx="112.2" cy="428.0" r="2.3" fill="#2563eb"/><circle cx="117.5" cy="427.8" r="2.3" fill="#2563eb"/><circle cx="122.7" cy="427.8" r="2.3" fill="#2563eb"/><circle cx="128.0" cy="426.9" r="2.3" fill="#2563eb"/><circle cx="133.3" cy="426.3" r="2.3" fill="#2563eb"/><circle cx="138.5" cy="425.7" r="2.3" fill="#2563eb"/><circle cx="143.8" cy="425.7" r="2.3" fill="#2563eb"/><circle cx="149.1" cy="424.5" r="2.3" fill="#2563eb"/><circle cx="154.4" cy="423.9" r="2.3" fill="#2563eb"/><circle cx="159.6" cy="422.6" r="2.3" fill="#2563eb"/><circle cx="164.9" cy="422.3" r="2.3" fill="#2563eb"/><circle cx="170.2" cy="422.3" r="2.3" fill="#2563eb"/><circle cx="175.5" cy="418.6" r="2.3" fill="#2563eb"/><circle cx="180.7" cy="418.6" r="2.3" fill="#2563eb"/><circle cx="186.0" cy="417.8" r="2.3" fill="#2563eb"/><circle cx="191.3" cy="417.1" r="2.3" fill="#2563eb"/><circle cx="196.5" cy="415.4" r="2.3" fill="#2563eb"/><circle cx="201.8" cy="415.1" r="2.3" fill="#2563eb"/><circle cx="207.1" cy="415.1" r="2.3" fill="#2563eb"/><circle cx="212.4" cy="412.2" r="2.3" fill="#2563eb"/><circle cx="217.6" cy="411.7" r="2.3" fill="#2563eb"/><circle cx="222.9" cy="411.3" r="2.3" fill="#2563eb"/><circle cx="228.2" cy="410.2" r="2.3" fill="#2563eb"/><circle cx="233.5" cy="408.3" r="2.3" fill="#2563eb"/><circle cx="238.7" cy="407.6" r="2.3" fill="#2563eb"/><circle cx="244.0" cy="407.3" r="2.3" fill="#2563eb"/><circle cx="249.3" cy="406.7" r="2.3" fill="#2563eb"/><circle cx="254.5" cy="404.4" r="2.3" fill="#2563eb"/><circle cx="259.8" cy="403.9" r="2.3" fill="#2563eb"/><circle cx="265.1" cy="403.9" r="2.3" fill="#2563eb"/><circle cx="270.4" cy="403.6" r="2.3" fill="#2563eb"/><circle cx="275.6" cy="403.6" r="2.3" fill="#2563eb"/><circle cx="280.9" cy="403.5" r="2.3" fill="#2563eb"/><circle cx="286.2" cy="403.4" r="2.3" fill="#2563eb"/><circle cx="291.5" cy="403.0" r="2.3" fill="#2563eb"/><circle cx="296.7" cy="400.9" r="2.3" fill="#2563eb"/><circle cx="302.0" cy="400.5" r="2.3" fill="#2563eb"/><circle cx="307.3" cy="400.4" r="2.3" fill="#2563eb"/><circle cx="312.5" cy="399.9" r="2.3" fill="#2563eb"/><circle cx="317.8" cy="399.3" r="2.3" fill="#2563eb"/><circle cx="323.1" cy="398.9" r="2.3" fill="#2563eb"/><circle cx="328.4" cy="398.9" r="2.3" fill="#2563eb"/><circle cx="333.6" cy="398.9" r="2.3" fill="#2563eb"/><circle cx="338.9" cy="399.0" r="2.3" fill="#2563eb"/><circle cx="344.2" cy="398.7" r="2.3" fill="#2563eb"/><circle cx="349.5" cy="398.3" r="2.3" fill="#2563eb"/><circle cx="354.7" cy="396.3" r="2.3" fill="#2563eb"/><circle cx="360.0" cy="395.5" r="2.3" fill="#2563eb"/><circle cx="365.3" cy="395.5" r="2.3" fill="#2563eb"/><circle cx="370.5" cy="395.5" r="2.3" fill="#2563eb"/><circle cx="375.8" cy="394.9" r="2.3" fill="#2563eb"/><circle cx="381.1" cy="394.9" r="2.3" fill="#2563eb"/><circle cx="386.4" cy="394.9" r="2.3" fill="#2563eb"/><circle cx="391.6" cy="394.9" r="2.3" fill="#2563eb"/><circle cx="396.9" cy="394.9" r="2.3" fill="#2563eb"/><circle cx="402.2" cy="394.6" r="2.3" fill="#2563eb"/><circle cx="407.5" cy="395.4" r="2.3" fill="#2563eb"/><circle cx="412.7" cy="395.1" r="2.3" fill="#2563eb"/><circle cx="418.0" cy="393.9" r="2.3" fill="#2563eb"/><circle cx="423.3" cy="393.0" r="2.3" fill="#2563eb"/><circle cx="428.5" cy="393.2" r="2.3" fill="#2563eb"/><circle cx="433.8" cy="391.3" r="2.3" fill="#2563eb"/><circle cx="439.1" cy="390.3" r="2.3" fill="#2563eb"/><circle cx="444.4" cy="393.2" r="2.3" fill="#2563eb"/><circle cx="449.6" cy="391.9" r="2.3" fill="#2563eb"/><circle cx="454.9" cy="391.7" r="2.3" fill="#2563eb"/><circle cx="460.2" cy="391.5" r="2.3" fill="#2563eb"/><circle cx="465.5" cy="388.5" r="2.3" fill="#2563eb"/><circle cx="470.7" cy="387.6" r="2.3" fill="#2563eb"/><circle cx="476.0" cy="387.1" r="2.3" fill="#2563eb"/><circle cx="481.3" cy="387.1" r="2.3" fill="#2563eb"/><circle cx="486.5" cy="383.1" r="2.3" fill="#2563eb"/><circle cx="491.8" cy="383.1" r="2.3" fill="#2563eb"/><circle cx="497.1" cy="383.1" r="2.3" fill="#2563eb"/><circle cx="502.4" cy="383.0" r="2.3" fill="#2563eb"/><circle cx="507.6" cy="382.9" r="2.3" fill="#2563eb"/><circle cx="512.9" cy="382.9" r="2.3" fill="#2563eb"/><circle cx="518.2" cy="382.9" r="2.3" fill="#2563eb"/><circle cx="523.5" cy="382.9" r="2.3" fill="#2563eb"/><circle cx="528.7" cy="382.9" r="2.3" fill="#2563eb"/><circle cx="534.0" cy="382.9" r="2.3" fill="#2563eb"/><circle cx="539.3" cy="382.9" r="2.3" fill="#2563eb"/><circle cx="544.5" cy="382.9" r="2.3" fill="#2563eb"/><circle cx="549.8" cy="382.9" r="2.3" fill="#2563eb"/><circle cx="555.1" cy="382.9" r="2.3" fill="#2563eb"/><circle cx="560.4" cy="382.9" r="2.3" fill="#2563eb"/><circle cx="565.6" cy="382.9" r="2.3" fill="#2563eb"/><circle cx="570.9" cy="382.6" r="2.3" fill="#2563eb"/><circle cx="576.2" cy="382.6" r="2.3" fill="#2563eb"/><circle cx="581.5" cy="382.2" r="2.3" fill="#2563eb"/><circle cx="586.7" cy="382.2" r="2.3" fill="#2563eb"/><circle cx="592.0" cy="382.2" r="2.3" fill="#2563eb"/><circle cx="597.3" cy="382.2" r="2.3" fill="#2563eb"/><circle cx="602.5" cy="382.1" r="2.3" fill="#2563eb"/><circle cx="607.8" cy="381.7" r="2.3" fill="#2563eb"/><circle cx="613.1" cy="381.7" r="2.3" fill="#2563eb"/><circle cx="618.4" cy="381.7" r="2.3" fill="#2563eb"/><circle cx="623.6" cy="381.4" r="2.3" fill="#2563eb"/><circle cx="628.9" cy="381.0" r="2.3" fill="#2563eb"/><circle cx="634.2" cy="381.0" r="2.3" fill="#2563eb"/><circle cx="639.5" cy="380.9" r="2.3" fill="#2563eb"/><circle cx="644.7" cy="380.9" r="2.3" fill="#2563eb"/><circle cx="650.0" cy="380.9" r="2.3" fill="#2563eb"/><circle cx="655.3" cy="380.7" r="2.3" fill="#2563eb"/><circle cx="660.5" cy="380.7" r="2.3" fill="#2563eb"/><circle cx="665.8" cy="380.7" r="2.3" fill="#2563eb"/><circle cx="671.1" cy="380.7" r="2.3" fill="#2563eb"/><circle cx="676.4" cy="380.7" r="2.3" fill="#2563eb"/><circle cx="681.6" cy="379.3" r="2.3" fill="#2563eb"/><circle cx="686.9" cy="379.3" r="2.3" fill="#2563eb"/><circle cx="692.2" cy="379.2" r="2.3" fill="#2563eb"/><circle cx="697.5" cy="376.9" r="2.3" fill="#2563eb"/><circle cx="702.7" cy="376.6" r="2.3" fill="#2563eb"/><circle cx="708.0" cy="376.5" r="2.3" fill="#2563eb"/><circle cx="713.3" cy="376.5" r="2.3" fill="#2563eb"/><circle cx="718.5" cy="376.4" r="2.3" fill="#2563eb"/><circle cx="723.8" cy="376.4" r="2.3" fill="#2563eb"/><circle cx="729.1" cy="376.0" r="2.3" fill="#2563eb"/><circle cx="734.4" cy="376.0" r="2.3" fill="#2563eb"/><circle cx="739.6" cy="376.0" r="2.3" fill="#2563eb"/><circle cx="744.9" cy="375.6" r="2.3" fill="#2563eb"/><circle cx="750.2" cy="375.5" r="2.3" fill="#2563eb"/><circle cx="755.5" cy="375.5" r="2.3" fill="#2563eb"/><circle cx="760.7" cy="375.3" r="2.3" fill="#2563eb"/><circle cx="766.0" cy="375.3" r="2.3" fill="#2563eb"/><circle cx="771.3" cy="375.2" r="2.3" fill="#2563eb"/><circle cx="776.5" cy="375.2" r="2.3" fill="#2563eb"/><circle cx="781.8" cy="375.2" r="2.3" fill="#2563eb"/><circle cx="787.1" cy="375.2" r="2.3" fill="#2563eb"/><circle cx="792.4" cy="375.2" r="2.3" fill="#2563eb"/><circle cx="797.6" cy="375.2" r="2.3" fill="#2563eb"/><circle cx="802.9" cy="375.2" r="2.3" fill="#2563eb"/><circle cx="808.2" cy="375.2" r="2.3" fill="#2563eb"/><circle cx="813.5" cy="375.1" r="2.3" fill="#2563eb"/><circle cx="818.7" cy="375.1" r="2.3" fill="#2563eb"/><circle cx="824.0" cy="375.1" r="2.3" fill="#2563eb"/><circle cx="829.3" cy="375.1" r="2.3" fill="#2563eb"/><circle cx="834.5" cy="375.1" r="2.3" fill="#2563eb"/><circle cx="839.8" cy="375.1" r="2.3" fill="#2563eb"/><circle cx="845.1" cy="375.1" r="2.3" fill="#2563eb"/><circle cx="850.4" cy="375.0" r="2.3" fill="#2563eb"/><circle cx="855.6" cy="375.0" r="2.3" fill="#2563eb"/><circle cx="860.9" cy="374.9" r="2.3" fill="#2563eb"/><circle cx="866.2" cy="374.9" r="2.3" fill="#2563eb"/><circle cx="871.5" cy="374.9" r="2.3" fill="#2563eb"/><circle cx="876.7" cy="374.8" r="2.3" fill="#2563eb"/><circle cx="882.0" cy="374.8" r="2.3" fill="#2563eb"/><circle cx="887.3" cy="374.8" r="2.3" fill="#2563eb"/><circle cx="892.5" cy="374.8" r="2.3" fill="#2563eb"/><circle cx="897.8" cy="374.8" r="2.3" fill="#2563eb"/><circle cx="903.1" cy="374.8" r="2.3" fill="#2563eb"/><circle cx="908.4" cy="374.7" r="2.3" fill="#2563eb"/><circle cx="913.6" cy="374.7" r="2.3" fill="#2563eb"/><circle cx="918.9" cy="374.6" r="2.3" fill="#2563eb"/><circle cx="924.2" cy="374.6" r="2.3" fill="#2563eb"/><circle cx="929.5" cy="374.6" r="2.3" fill="#2563eb"/><circle cx="934.7" cy="374.5" r="2.3" fill="#2563eb"/><circle cx="940.0" cy="374.5" r="2.3" fill="#2563eb"/>
<path d="M 75.3,453.2 L 80.5,453.1 L 85.8,452.8 L 91.1,452.2 L 96.4,452.2 L 101.6,452.2 L 106.9,452.0 L 112.2,450.9 L 117.5,450.7 L 122.7,450.7 L 128.0,450.1 L 133.3,449.8 L 138.5,449.4 L 143.8,449.4 L 149.1,448.7 L 154.4,448.3 L 159.6,447.4 L 164.9,447.3 L 170.2,447.3 L 175.5,445.0 L 180.7,445.0 L 186.0,444.5 L 191.3,444.0 L 196.5,443.0 L 201.8,442.8 L 207.1,442.8 L 212.4,440.9 L 217.6,440.4 L 222.9,440.2 L 228.2,439.5 L 233.5,438.3 L 238.7,437.8 L 244.0,437.7 L 249.3,437.2 L 254.5,435.8 L 259.8,435.5 L 265.1,435.5 L 270.4,435.3 L 275.6,435.3 L 280.9,435.2 L 286.2,435.1 L 291.5,434.9 L 296.7,433.5 L 302.0,433.3 L 307.3,433.3 L 312.5,432.9 L 317.8,432.5 L 323.1,431.7 L 328.4,431.7 L 333.6,431.7 L 338.9,431.8 L 344.2,431.6 L 349.5,431.4 L 354.7,430.0 L 360.0,429.6 L 365.3,429.5 L 370.5,429.5 L 375.8,429.2 L 381.1,429.2 L 386.4,429.2 L 391.6,429.2 L 396.9,429.2 L 402.2,429.0 L 407.5,428.0 L 412.7,427.9 L 418.0,423.9 L 423.3,420.9 L 428.5,420.7 L 433.8,419.3 L 439.1,418.6 L 444.4,418.3 L 449.6,417.3 L 454.9,417.2 L 460.2,417.0 L 465.5,414.8 L 470.7,414.1 L 476.0,413.8 L 481.3,413.8 L 486.5,399.2 L 491.8,399.2 L 497.1,399.2 L 502.4,399.1 L 507.6,399.0 L 512.9,399.0 L 518.2,399.0 L 523.5,399.0 L 528.7,399.0 L 534.0,399.0 L 539.3,399.0 L 544.5,399.0 L 549.8,399.0 L 555.1,399.0 L 560.4,399.0 L 565.6,399.0 L 570.9,398.8 L 576.2,398.8 L 581.5,398.5 L 586.7,398.5 L 592.0,398.5 L 597.3,398.5 L 602.5,398.4 L 607.8,398.1 L 613.1,398.1 L 618.4,398.1 L 623.6,397.8 L 628.9,397.5 L 634.2,397.4 L 639.5,397.4 L 644.7,397.4 L 650.0,397.3 L 655.3,397.2 L 660.5,397.2 L 665.8,397.2 L 671.1,397.2 L 676.4,397.2 L 681.6,396.0 L 686.9,396.0 L 692.2,395.9 L 697.5,394.0 L 702.7,393.7 L 708.0,393.6 L 713.3,393.6 L 718.5,393.6 L 723.8,393.6 L 729.1,393.2 L 734.4,393.2 L 739.6,393.1 L 744.9,392.8 L 750.2,392.8 L 755.5,392.8 L 760.7,392.6 L 766.0,392.6 L 771.3,392.5 L 776.5,392.5 L 781.8,392.5 L 787.1,392.5 L 792.4,392.5 L 797.6,392.5 L 802.9,392.5 L 808.2,392.5 L 813.5,392.4 L 818.7,392.4 L 824.0,392.4 L 829.3,392.4 L 834.5,392.4 L 839.8,392.4 L 845.1,392.4 L 850.4,392.4 L 855.6,392.4 L 860.9,392.3 L 866.2,392.3 L 871.5,392.3 L 876.7,392.2 L 882.0,392.2 L 887.3,392.1 L 892.5,392.1 L 897.8,392.1 L 903.1,392.1 L 908.4,392.1 L 913.6,392.0 L 918.9,392.0 L 924.2,392.0 L 929.5,392.0 L 934.7,391.9 L 940.0,391.9" fill="none" stroke="#dc2626" stroke-width="2"/><circle cx="75.3" cy="453.2" r="2.3" fill="#dc2626"/><circle cx="80.5" cy="453.1" r="2.3" fill="#dc2626"/><circle cx="85.8" cy="452.8" r="2.3" fill="#dc2626"/><circle cx="91.1" cy="452.2" r="2.3" fill="#dc2626"/><circle cx="96.4" cy="452.2" r="2.3" fill="#dc2626"/><circle cx="101.6" cy="452.2" r="2.3" fill="#dc2626"/><circle cx="106.9" cy="452.0" r="2.3" fill="#dc2626"/><circle cx="112.2" cy="450.9" r="2.3" fill="#dc2626"/><circle cx="117.5" cy="450.7" r="2.3" fill="#dc2626"/><circle cx="122.7" cy="450.7" r="2.3" fill="#dc2626"/><circle cx="128.0" cy="450.1" r="2.3" fill="#dc2626"/><circle cx="133.3" cy="449.8" r="2.3" fill="#dc2626"/><circle cx="138.5" cy="449.4" r="2.3" fill="#dc2626"/><circle cx="143.8" cy="449.4" r="2.3" fill="#dc2626"/><circle cx="149.1" cy="448.7" r="2.3" fill="#dc2626"/><circle cx="154.4" cy="448.3" r="2.3" fill="#dc2626"/><circle cx="159.6" cy="447.4" r="2.3" fill="#dc2626"/><circle cx="164.9" cy="447.3" r="2.3" fill="#dc2626"/><circle cx="170.2" cy="447.3" r="2.3" fill="#dc2626"/><circle cx="175.5" cy="445.0" r="2.3" fill="#dc2626"/><circle cx="180.7" cy="445.0" r="2.3" fill="#dc2626"/><circle cx="186.0" cy="444.5" r="2.3" fill="#dc2626"/><circle cx="191.3" cy="444.0" r="2.3" fill="#dc2626"/><circle cx="196.5" cy="443.0" r="2.3" fill="#dc2626"/><circle cx="201.8" cy="442.8" r="2.3" fill="#dc2626"/><circle cx="207.1" cy="442.8" r="2.3" fill="#dc2626"/><circle cx="212.4" cy="440.9" r="2.3" fill="#dc2626"/><circle cx="217.6" cy="440.4" r="2.3" fill="#dc2626"/><circle cx="222.9" cy="440.2" r="2.3" fill="#dc2626"/><circle cx="228.2" cy="439.5" r="2.3" fill="#dc2626"/><circle cx="233.5" cy="438.3" r="2.3" fill="#dc2626"/><circle cx="238.7" cy="437.8" r="2.3" fill="#dc2626"/><circle cx="244.0" cy="437.7" r="2.3" fill="#dc2626"/><circle cx="249.3" cy="437.2" r="2.3" fill="#dc2626"/><circle cx="254.5" cy="435.8" r="2.3" fill="#dc2626"/><circle cx="259.8" cy="435.5" r="2.3" fill="#dc2626"/><circle cx="265.1" cy="435.5" r="2.3" fill="#dc2626"/><circle cx="270.4" cy="435.3" r="2.3" fill="#dc2626"/><circle cx="275.6" cy="435.3" r="2.3" fill="#dc2626"/><circle cx="280.9" cy="435.2" r="2.3" fill="#dc2626"/><circle cx="286.2" cy="435.1" r="2.3" fill="#dc2626"/><circle cx="291.5" cy="434.9" r="2.3" fill="#dc2626"/><circle cx="296.7" cy="433.5" r="2.3" fill="#dc2626"/><circle cx="302.0" cy="433.3" r="2.3" fill="#dc2626"/><circle cx="307.3" cy="433.3" r="2.3" fill="#dc2626"/><circle cx="312.5" cy="432.9" r="2.3" fill="#dc2626"/><circle cx="317.8" cy="432.5" r="2.3" fill="#dc2626"/><circle cx="323.1" cy="431.7" r="2.3" fill="#dc2626"/><circle cx="328.4" cy="431.7" r="2.3" fill="#dc2626"/><circle cx="333.6" cy="431.7" r="2.3" fill="#dc2626"/><circle cx="338.9" cy="431.8" r="2.3" fill="#dc2626"/><circle cx="344.2" cy="431.6" r="2.3" fill="#dc2626"/><circle cx="349.5" cy="431.4" r="2.3" fill="#dc2626"/><circle cx="354.7" cy="430.0" r="2.3" fill="#dc2626"/><circle cx="360.0" cy="429.6" r="2.3" fill="#dc2626"/><circle cx="365.3" cy="429.5" r="2.3" fill="#dc2626"/><circle cx="370.5" cy="429.5" r="2.3" fill="#dc2626"/><circle cx="375.8" cy="429.2" r="2.3" fill="#dc2626"/><circle cx="381.1" cy="429.2" r="2.3" fill="#dc2626"/><circle cx="386.4" cy="429.2" r="2.3" fill="#dc2626"/><circle cx="391.6" cy="429.2" r="2.3" fill="#dc2626"/><circle cx="396.9" cy="429.2" r="2.3" fill="#dc2626"/><circle cx="402.2" cy="429.0" r="2.3" fill="#dc2626"/><circle cx="407.5" cy="428.0" r="2.3" fill="#dc2626"/><circle cx="412.7" cy="427.9" r="2.3" fill="#dc2626"/><circle cx="418.0" cy="423.9" r="2.3" fill="#dc2626"/><circle cx="423.3" cy="420.9" r="2.3" fill="#dc2626"/><circle cx="428.5" cy="420.7" r="2.3" fill="#dc2626"/><circle cx="433.8" cy="419.3" r="2.3" fill="#dc2626"/><circle cx="439.1" cy="418.6" r="2.3" fill="#dc2626"/><circle cx="444.4" cy="418.3" r="2.3" fill="#dc2626"/><circle cx="449.6" cy="417.3" r="2.3" fill="#dc2626"/><circle cx="454.9" cy="417.2" r="2.3" fill="#dc2626"/><circle cx="460.2" cy="417.0" r="2.3" fill="#dc2626"/><circle cx="465.5" cy="414.8" r="2.3" fill="#dc2626"/><circle cx="470.7" cy="414.1" r="2.3" fill="#dc2626"/><circle cx="476.0" cy="413.8" r="2.3" fill="#dc2626"/><circle cx="481.3" cy="413.8" r="2.3" fill="#dc2626"/><circle cx="486.5" cy="399.2" r="2.3" fill="#dc2626"/><circle cx="491.8" cy="399.2" r="2.3" fill="#dc2626"/><circle cx="497.1" cy="399.2" r="2.3" fill="#dc2626"/><circle cx="502.4" cy="399.1" r="2.3" fill="#dc2626"/><circle cx="507.6" cy="399.0" r="2.3" fill="#dc2626"/><circle cx="512.9" cy="399.0" r="2.3" fill="#dc2626"/><circle cx="518.2" cy="399.0" r="2.3" fill="#dc2626"/><circle cx="523.5" cy="399.0" r="2.3" fill="#dc2626"/><circle cx="528.7" cy="399.0" r="2.3" fill="#dc2626"/><circle cx="534.0" cy="399.0" r="2.3" fill="#dc2626"/><circle cx="539.3" cy="399.0" r="2.3" fill="#dc2626"/><circle cx="544.5" cy="399.0" r="2.3" fill="#dc2626"/><circle cx="549.8" cy="399.0" r="2.3" fill="#dc2626"/><circle cx="555.1" cy="399.0" r="2.3" fill="#dc2626"/><circle cx="560.4" cy="399.0" r="2.3" fill="#dc2626"/><circle cx="565.6" cy="399.0" r="2.3" fill="#dc2626"/><circle cx="570.9" cy="398.8" r="2.3" fill="#dc2626"/><circle cx="576.2" cy="398.8" r="2.3" fill="#dc2626"/><circle cx="581.5" cy="398.5" r="2.3" fill="#dc2626"/><circle cx="586.7" cy="398.5" r="2.3" fill="#dc2626"/><circle cx="592.0" cy="398.5" r="2.3" fill="#dc2626"/><circle cx="597.3" cy="398.5" r="2.3" fill="#dc2626"/><circle cx="602.5" cy="398.4" r="2.3" fill="#dc2626"/><circle cx="607.8" cy="398.1" r="2.3" fill="#dc2626"/><circle cx="613.1" cy="398.1" r="2.3" fill="#dc2626"/><circle cx="618.4" cy="398.1" r="2.3" fill="#dc2626"/><circle cx="623.6" cy="397.8" r="2.3" fill="#dc2626"/><circle cx="628.9" cy="397.5" r="2.3" fill="#dc2626"/><circle cx="634.2" cy="397.4" r="2.3" fill="#dc2626"/><circle cx="639.5" cy="397.4" r="2.3" fill="#dc2626"/><circle cx="644.7" cy="397.4" r="2.3" fill="#dc2626"/><circle cx="650.0" cy="397.3" r="2.3" fill="#dc2626"/><circle cx="655.3" cy="397.2" r="2.3" fill="#dc2626"/><circle cx="660.5" cy="397.2" r="2.3" fill="#dc2626"/><circle cx="665.8" cy="397.2" r="2.3" fill="#dc2626"/><circle cx="671.1" cy="397.2" r="2.3" fill="#dc2626"/><circle cx="676.4" cy="397.2" r="2.3" fill="#dc2626"/><circle cx="681.6" cy="396.0" r="2.3" fill="#dc2626"/><circle cx="686.9" cy="396.0" r="2.3" fill="#dc2626"/><circle cx="692.2" cy="395.9" r="2.3" fill="#dc2626"/><circle cx="697.5" cy="394.0" r="2.3" fill="#dc2626"/><circle cx="702.7" cy="393.7" r="2.3" fill="#dc2626"/><circle cx="708.0" cy="393.6" r="2.3" fill="#dc2626"/><circle cx="713.3" cy="393.6" r="2.3" fill="#dc2626"/><circle cx="718.5" cy="393.6" r="2.3" fill="#dc2626"/><circle cx="723.8" cy="393.6" r="2.3" fill="#dc2626"/><circle cx="729.1" cy="393.2" r="2.3" fill="#dc2626"/><circle cx="734.4" cy="393.2" r="2.3" fill="#dc2626"/><circle cx="739.6" cy="393.1" r="2.3" fill="#dc2626"/><circle cx="744.9" cy="392.8" r="2.3" fill="#dc2626"/><circle cx="750.2" cy="392.8" r="2.3" fill="#dc2626"/><circle cx="755.5" cy="392.8" r="2.3" fill="#dc2626"/><circle cx="760.7" cy="392.6" r="2.3" fill="#dc2626"/><circle cx="766.0" cy="392.6" r="2.3" fill="#dc2626"/><circle cx="771.3" cy="392.5" r="2.3" fill="#dc2626"/><circle cx="776.5" cy="392.5" r="2.3" fill="#dc2626"/><circle cx="781.8" cy="392.5" r="2.3" fill="#dc2626"/><circle cx="787.1" cy="392.5" r="2.3" fill="#dc2626"/><circle cx="792.4" cy="392.5" r="2.3" fill="#dc2626"/><circle cx="797.6" cy="392.5" r="2.3" fill="#dc2626"/><circle cx="802.9" cy="392.5" r="2.3" fill="#dc2626"/><circle cx="808.2" cy="392.5" r="2.3" fill="#dc2626"/><circle cx="813.5" cy="392.4" r="2.3" fill="#dc2626"/><circle cx="818.7" cy="392.4" r="2.3" fill="#dc2626"/><circle cx="824.0" cy="392.4" r="2.3" fill="#dc2626"/><circle cx="829.3" cy="392.4" r="2.3" fill="#dc2626"/><circle cx="834.5" cy="392.4" r="2.3" fill="#dc2626"/><circle cx="839.8" cy="392.4" r="2.3" fill="#dc2626"/><circle cx="845.1" cy="392.4" r="2.3" fill="#dc2626"/><circle cx="850.4" cy="392.4" r="2.3" fill="#dc2626"/><circle cx="855.6" cy="392.4" r="2.3" fill="#dc2626"/><circle cx="860.9" cy="392.3" r="2.3" fill="#dc2626"/><circle cx="866.2" cy="392.3" r="2.3" fill="#dc2626"/><circle cx="871.5" cy="392.3" r="2.3" fill="#dc2626"/><circle cx="876.7" cy="392.2" r="2.3" fill="#dc2626"/><circle cx="882.0" cy="392.2" r="2.3" fill="#dc2626"/><circle cx="887.3" cy="392.1" r="2.3" fill="#dc2626"/><circle cx="892.5" cy="392.1" r="2.3" fill="#dc2626"/><circle cx="897.8" cy="392.1" r="2.3" fill="#dc2626"/><circle cx="903.1" cy="392.1" r="2.3" fill="#dc2626"/><circle cx="908.4" cy="392.1" r="2.3" fill="#dc2626"/><circle cx="913.6" cy="392.0" r="2.3" fill="#dc2626"/><circle cx="918.9" cy="392.0" r="2.3" fill="#dc2626"/><circle cx="924.2" cy="392.0" r="2.3" fill="#dc2626"/><circle cx="929.5" cy="392.0" r="2.3" fill="#dc2626"/><circle cx="934.7" cy="391.9" r="2.3" fill="#dc2626"/><circle cx="940.0" cy="391.9" r="2.3" fill="#dc2626"/>
<path d="M 75.3,259.3 L 80.5,259.4 L 85.8,259.3 L 91.1,259.6 L 96.4,259.6 L 101.6,259.6 L 106.9,260.1 L 112.2,266.7 L 117.5,266.6 L 122.7,266.6 L 128.0,268.3 L 133.3,270.5 L 138.5,272.0 L 143.8,272.0 L 149.1,274.6 L 154.4,276.4 L 159.6,278.9 L 164.9,279.4 L 170.2,279.4 L 175.5,285.1 L 180.7,285.1 L 186.0,286.6 L 191.3,289.6 L 196.5,293.0 L 201.8,292.9 L 207.1,292.8 L 212.4,296.6 L 217.6,297.5 L 222.9,298.0 L 228.2,299.2 L 233.5,299.3 L 238.7,299.7 L 244.0,300.7 L 249.3,300.7 L 254.5,303.2 L 259.8,303.8 L 265.1,303.8 L 270.4,304.5 L 275.6,304.5 L 280.9,304.5 L 286.2,304.8 L 291.5,305.1 L 296.7,306.6 L 302.0,307.9 L 307.3,307.9 L 312.5,309.6 L 317.8,310.5 L 323.1,310.9 L 328.4,310.9 L 333.6,310.9 L 338.9,310.8 L 344.2,312.1 L 349.5,312.8 L 354.7,316.8 L 360.0,317.4 L 365.3,317.7 L 370.5,317.7 L 375.8,320.0 L 381.1,320.0 L 386.4,320.0 L 391.6,320.0 L 396.9,320.2 L 402.2,321.1 L 407.5,319.7 L 412.7,319.3 L 418.0,317.8 L 423.3,318.5 L 428.5,317.0 L 433.8,319.0 L 439.1,320.1 L 444.4,314.7 L 449.6,319.2 L 454.9,319.8 L 460.2,319.8 L 465.5,325.3 L 470.7,325.9 L 476.0,325.8 L 481.3,325.8 L 486.5,331.3 L 491.8,331.4 L 497.1,331.5 L 502.4,331.5 L 507.6,331.5 L 512.9,331.5 L 518.2,331.5 L 523.5,331.5 L 528.7,331.5 L 534.0,331.5 L 539.3,331.5 L 544.5,331.5 L 549.8,331.5 L 555.1,331.5 L 560.4,331.5 L 565.6,331.5 L 570.9,331.9 L 576.2,331.9 L 581.5,332.2 L 586.7,332.1 L 592.0,332.1 L 597.3,332.2 L 602.5,331.5 L 607.8,331.6 L 613.1,331.6 L 618.4,331.6 L 623.6,331.5 L 628.9,331.3 L 634.2,331.3 L 639.5,331.3 L 644.7,331.3 L 650.0,331.3 L 655.3,331.3 L 660.5,331.3 L 665.8,331.3 L 671.1,331.3 L 676.4,331.3 L 681.6,331.4 L 686.9,331.2 L 692.2,331.2 L 697.5,332.8 L 702.7,333.2 L 708.0,333.2 L 713.3,333.2 L 718.5,333.2 L 723.8,333.2 L 729.1,333.3 L 734.4,333.3 L 739.6,333.3 L 744.9,333.2 L 750.2,333.3 L 755.5,333.3 L 760.7,334.0 L 766.0,334.0 L 771.3,334.0 L 776.5,334.0 L 781.8,334.0 L 787.1,334.0 L 792.4,334.0 L 797.6,334.0 L 802.9,333.9 L 808.2,333.9 L 813.5,333.9 L 818.7,334.0 L 824.0,334.1 L 829.3,334.1 L 834.5,334.2 L 839.8,334.2 L 845.1,334.2 L 850.4,334.2 L 855.6,334.2 L 860.9,334.1 L 866.2,334.1 L 871.5,334.1 L 876.7,334.1 L 882.0,334.1 L 887.3,334.0 L 892.5,334.0 L 897.8,334.0 L 903.1,334.0 L 908.4,334.2 L 913.6,334.2 L 918.9,334.2 L 924.2,334.2 L 929.5,334.2 L 934.7,334.3 L 940.0,334.3" fill="none" stroke="#9333ea" stroke-width="2" stroke-dasharray="5,4"/><circle cx="75.3" cy="259.3" r="2.3" fill="#9333ea"/><circle cx="80.5" cy="259.4" r="2.3" fill="#9333ea"/><circle cx="85.8" cy="259.3" r="2.3" fill="#9333ea"/><circle cx="91.1" cy="259.6" r="2.3" fill="#9333ea"/><circle cx="96.4" cy="259.6" r="2.3" fill="#9333ea"/><circle cx="101.6" cy="259.6" r="2.3" fill="#9333ea"/><circle cx="106.9" cy="260.1" r="2.3" fill="#9333ea"/><circle cx="112.2" cy="266.7" r="2.3" fill="#9333ea"/><circle cx="117.5" cy="266.6" r="2.3" fill="#9333ea"/><circle cx="122.7" cy="266.6" r="2.3" fill="#9333ea"/><circle cx="128.0" cy="268.3" r="2.3" fill="#9333ea"/><circle cx="133.3" cy="270.5" r="2.3" fill="#9333ea"/><circle cx="138.5" cy="272.0" r="2.3" fill="#9333ea"/><circle cx="143.8" cy="272.0" r="2.3" fill="#9333ea"/><circle cx="149.1" cy="274.6" r="2.3" fill="#9333ea"/><circle cx="154.4" cy="276.4" r="2.3" fill="#9333ea"/><circle cx="159.6" cy="278.9" r="2.3" fill="#9333ea"/><circle cx="164.9" cy="279.4" r="2.3" fill="#9333ea"/><circle cx="170.2" cy="279.4" r="2.3" fill="#9333ea"/><circle cx="175.5" cy="285.1" r="2.3" fill="#9333ea"/><circle cx="180.7" cy="285.1" r="2.3" fill="#9333ea"/><circle cx="186.0" cy="286.6" r="2.3" fill="#9333ea"/><circle cx="191.3" cy="289.6" r="2.3" fill="#9333ea"/><circle cx="196.5" cy="293.0" r="2.3" fill="#9333ea"/><circle cx="201.8" cy="292.9" r="2.3" fill="#9333ea"/><circle cx="207.1" cy="292.8" r="2.3" fill="#9333ea"/><circle cx="212.4" cy="296.6" r="2.3" fill="#9333ea"/><circle cx="217.6" cy="297.5" r="2.3" fill="#9333ea"/><circle cx="222.9" cy="298.0" r="2.3" fill="#9333ea"/><circle cx="228.2" cy="299.2" r="2.3" fill="#9333ea"/><circle cx="233.5" cy="299.3" r="2.3" fill="#9333ea"/><circle cx="238.7" cy="299.7" r="2.3" fill="#9333ea"/><circle cx="244.0" cy="300.7" r="2.3" fill="#9333ea"/><circle cx="249.3" cy="300.7" r="2.3" fill="#9333ea"/><circle cx="254.5" cy="303.2" r="2.3" fill="#9333ea"/><circle cx="259.8" cy="303.8" r="2.3" fill="#9333ea"/><circle cx="265.1" cy="303.8" r="2.3" fill="#9333ea"/><circle cx="270.4" cy="304.5" r="2.3" fill="#9333ea"/><circle cx="275.6" cy="304.5" r="2.3" fill="#9333ea"/><circle cx="280.9" cy="304.5" r="2.3" fill="#9333ea"/><circle cx="286.2" cy="304.8" r="2.3" fill="#9333ea"/><circle cx="291.5" cy="305.1" r="2.3" fill="#9333ea"/><circle cx="296.7" cy="306.6" r="2.3" fill="#9333ea"/><circle cx="302.0" cy="307.9" r="2.3" fill="#9333ea"/><circle cx="307.3" cy="307.9" r="2.3" fill="#9333ea"/><circle cx="312.5" cy="309.6" r="2.3" fill="#9333ea"/><circle cx="317.8" cy="310.5" r="2.3" fill="#9333ea"/><circle cx="323.1" cy="310.9" r="2.3" fill="#9333ea"/><circle cx="328.4" cy="310.9" r="2.3" fill="#9333ea"/><circle cx="333.6" cy="310.9" r="2.3" fill="#9333ea"/><circle cx="338.9" cy="310.8" r="2.3" fill="#9333ea"/><circle cx="344.2" cy="312.1" r="2.3" fill="#9333ea"/><circle cx="349.5" cy="312.8" r="2.3" fill="#9333ea"/><circle cx="354.7" cy="316.8" r="2.3" fill="#9333ea"/><circle cx="360.0" cy="317.4" r="2.3" fill="#9333ea"/><circle cx="365.3" cy="317.7" r="2.3" fill="#9333ea"/><circle cx="370.5" cy="317.7" r="2.3" fill="#9333ea"/><circle cx="375.8" cy="320.0" r="2.3" fill="#9333ea"/><circle cx="381.1" cy="320.0" r="2.3" fill="#9333ea"/><circle cx="386.4" cy="320.0" r="2.3" fill="#9333ea"/><circle cx="391.6" cy="320.0" r="2.3" fill="#9333ea"/><circle cx="396.9" cy="320.2" r="2.3" fill="#9333ea"/><circle cx="402.2" cy="321.1" r="2.3" fill="#9333ea"/><circle cx="407.5" cy="319.7" r="2.3" fill="#9333ea"/><circle cx="412.7" cy="319.3" r="2.3" fill="#9333ea"/><circle cx="418.0" cy="317.8" r="2.3" fill="#9333ea"/><circle cx="423.3" cy="318.5" r="2.3" fill="#9333ea"/><circle cx="428.5" cy="317.0" r="2.3" fill="#9333ea"/><circle cx="433.8" cy="319.0" r="2.3" fill="#9333ea"/><circle cx="439.1" cy="320.1" r="2.3" fill="#9333ea"/><circle cx="444.4" cy="314.7" r="2.3" fill="#9333ea"/><circle cx="449.6" cy="319.2" r="2.3" fill="#9333ea"/><circle cx="454.9" cy="319.8" r="2.3" fill="#9333ea"/><circle cx="460.2" cy="319.8" r="2.3" fill="#9333ea"/><circle cx="465.5" cy="325.3" r="2.3" fill="#9333ea"/><circle cx="470.7" cy="325.9" r="2.3" fill="#9333ea"/><circle cx="476.0" cy="325.8" r="2.3" fill="#9333ea"/><circle cx="481.3" cy="325.8" r="2.3" fill="#9333ea"/><circle cx="486.5" cy="331.3" r="2.3" fill="#9333ea"/><circle cx="491.8" cy="331.4" r="2.3" fill="#9333ea"/><circle cx="497.1" cy="331.5" r="2.3" fill="#9333ea"/><circle cx="502.4" cy="331.5" r="2.3" fill="#9333ea"/><circle cx="507.6" cy="331.5" r="2.3" fill="#9333ea"/><circle cx="512.9" cy="331.5" r="2.3" fill="#9333ea"/><circle cx="518.2" cy="331.5" r="2.3" fill="#9333ea"/><circle cx="523.5" cy="331.5" r="2.3" fill="#9333ea"/><circle cx="528.7" cy="331.5" r="2.3" fill="#9333ea"/><circle cx="534.0" cy="331.5" r="2.3" fill="#9333ea"/><circle cx="539.3" cy="331.5" r="2.3" fill="#9333ea"/><circle cx="544.5" cy="331.5" r="2.3" fill="#9333ea"/><circle cx="549.8" cy="331.5" r="2.3" fill="#9333ea"/><circle cx="555.1" cy="331.5" r="2.3" fill="#9333ea"/><circle cx="560.4" cy="331.5" r="2.3" fill="#9333ea"/><circle cx="565.6" cy="331.5" r="2.3" fill="#9333ea"/><circle cx="570.9" cy="331.9" r="2.3" fill="#9333ea"/><circle cx="576.2" cy="331.9" r="2.3" fill="#9333ea"/><circle cx="581.5" cy="332.2" r="2.3" fill="#9333ea"/><circle cx="586.7" cy="332.1" r="2.3" fill="#9333ea"/><circle cx="592.0" cy="332.1" r="2.3" fill="#9333ea"/><circle cx="597.3" cy="332.2" r="2.3" fill="#9333ea"/><circle cx="602.5" cy="331.5" r="2.3" fill="#9333ea"/><circle cx="607.8" cy="331.6" r="2.3" fill="#9333ea"/><circle cx="613.1" cy="331.6" r="2.3" fill="#9333ea"/><circle cx="618.4" cy="331.6" r="2.3" fill="#9333ea"/><circle cx="623.6" cy="331.5" r="2.3" fill="#9333ea"/><circle cx="628.9" cy="331.3" r="2.3" fill="#9333ea"/><circle cx="634.2" cy="331.3" r="2.3" fill="#9333ea"/><circle cx="639.5" cy="331.3" r="2.3" fill="#9333ea"/><circle cx="644.7" cy="331.3" r="2.3" fill="#9333ea"/><circle cx="650.0" cy="331.3" r="2.3" fill="#9333ea"/><circle cx="655.3" cy="331.3" r="2.3" fill="#9333ea"/><circle cx="660.5" cy="331.3" r="2.3" fill="#9333ea"/><circle cx="665.8" cy="331.3" r="2.3" fill="#9333ea"/><circle cx="671.1" cy="331.3" r="2.3" fill="#9333ea"/><circle cx="676.4" cy="331.3" r="2.3" fill="#9333ea"/><circle cx="681.6" cy="331.4" r="2.3" fill="#9333ea"/><circle cx="686.9" cy="331.2" r="2.3" fill="#9333ea"/><circle cx="692.2" cy="331.2" r="2.3" fill="#9333ea"/><circle cx="697.5" cy="332.8" r="2.3" fill="#9333ea"/><circle cx="702.7" cy="333.2" r="2.3" fill="#9333ea"/><circle cx="708.0" cy="333.2" r="2.3" fill="#9333ea"/><circle cx="713.3" cy="333.2" r="2.3" fill="#9333ea"/><circle cx="718.5" cy="333.2" r="2.3" fill="#9333ea"/><circle cx="723.8" cy="333.2" r="2.3" fill="#9333ea"/><circle cx="729.1" cy="333.3" r="2.3" fill="#9333ea"/><circle cx="734.4" cy="333.3" r="2.3" fill="#9333ea"/><circle cx="739.6" cy="333.3" r="2.3" fill="#9333ea"/><circle cx="744.9" cy="333.2" r="2.3" fill="#9333ea"/><circle cx="750.2" cy="333.3" r="2.3" fill="#9333ea"/><circle cx="755.5" cy="333.3" r="2.3" fill="#9333ea"/><circle cx="760.7" cy="334.0" r="2.3" fill="#9333ea"/><circle cx="766.0" cy="334.0" r="2.3" fill="#9333ea"/><circle cx="771.3" cy="334.0" r="2.3" fill="#9333ea"/><circle cx="776.5" cy="334.0" r="2.3" fill="#9333ea"/><circle cx="781.8" cy="334.0" r="2.3" fill="#9333ea"/><circle cx="787.1" cy="334.0" r="2.3" fill="#9333ea"/><circle cx="792.4" cy="334.0" r="2.3" fill="#9333ea"/><circle cx="797.6" cy="334.0" r="2.3" fill="#9333ea"/><circle cx="802.9" cy="333.9" r="2.3" fill="#9333ea"/><circle cx="808.2" cy="333.9" r="2.3" fill="#9333ea"/><circle cx="813.5" cy="333.9" r="2.3" fill="#9333ea"/><circle cx="818.7" cy="334.0" r="2.3" fill="#9333ea"/><circle cx="824.0" cy="334.1" r="2.3" fill="#9333ea"/><circle cx="829.3" cy="334.1" r="2.3" fill="#9333ea"/><circle cx="834.5" cy="334.2" r="2.3" fill="#9333ea"/><circle cx="839.8" cy="334.2" r="2.3" fill="#9333ea"/><circle cx="845.1" cy="334.2" r="2.3" fill="#9333ea"/><circle cx="850.4" cy="334.2" r="2.3" fill="#9333ea"/><circle cx="855.6" cy="334.2" r="2.3" fill="#9333ea"/><circle cx="860.9" cy="334.1" r="2.3" fill="#9333ea"/><circle cx="866.2" cy="334.1" r="2.3" fill="#9333ea"/><circle cx="871.5" cy="334.1" r="2.3" fill="#9333ea"/><circle cx="876.7" cy="334.1" r="2.3" fill="#9333ea"/><circle cx="882.0" cy="334.1" r="2.3" fill="#9333ea"/><circle cx="887.3" cy="334.0" r="2.3" fill="#9333ea"/><circle cx="892.5" cy="334.0" r="2.3" fill="#9333ea"/><circle cx="897.8" cy="334.0" r="2.3" fill="#9333ea"/><circle cx="903.1" cy="334.0" r="2.3" fill="#9333ea"/><circle cx="908.4" cy="334.2" r="2.3" fill="#9333ea"/><circle cx="913.6" cy="334.2" r="2.3" fill="#9333ea"/><circle cx="918.9" cy="334.2" r="2.3" fill="#9333ea"/><circle cx="924.2" cy="334.2" r="2.3" fill="#9333ea"/><circle cx="929.5" cy="334.2" r="2.3" fill="#9333ea"/><circle cx="934.7" cy="334.3" r="2.3" fill="#9333ea"/><circle cx="940.0" cy="334.3" r="2.3" fill="#9333ea"/>
<rect x="960" y="60" width="14" height="14" fill="#16a34a"/>
<text x="980" y="72" font-size="12" fill="#111">File coverage %</text>
<text x="980" y="87" font-size="11" fill="#666">latest 85.1</text>
<rect x="960" y="106" width="14" height="14" fill="#2563eb"/>
<text x="980" y="118" font-size="12" fill="#111">Matched-files recall</text>
<text x="980" y="133" font-size="11" fill="#666">latest 26.9</text>
<rect x="960" y="152" width="14" height="14" fill="#dc2626"/>
<text x="980" y="164" font-size="12" fill="#111">Parity score (incl. penalty)</text>
<text x="980" y="179" font-size="11" fill="#666">latest 22.8</text>
<line x1="960" y1="205" x2="974" y2="205" stroke="#9333ea" stroke-width="3" stroke-dasharray="5,4"/>
<text x="980" y="210" font-size="12" fill="#111">File-level precision (diag)</text>
<text x="980" y="225" font-size="11" fill="#666">latest 36.2</text>
<text x="505.0" y="585" font-size="12" fill="#444" text-anchor="middle">commit (oldest → newest)</text>
</svg>