<svg xmlns="http://www.w3.org/2000/svg" width="1180" height="600" font-family="-apple-system,Segoe UI,Roboto,sans-serif">
<rect width="1180" height="600" fill="#fff"/>
<text x="70" y="28" font-size="18" font-weight="700" fill="#111">Psalm ⇆ pzoom parity over 65 commits</text>
<text x="70" y="46" font-size="12" fill="#666">Method-level construct-reference recall (HEAD scorer + fixed mapping replayed over history)</text>
<line x1="70" y1="490.0" x2="940" y2="490.0" stroke="#eee"/>
<text x="60" y="494.0" font-size="11" fill="#888" text-anchor="end">0</text>
<line x1="70" y1="404.0" x2="940" y2="404.0" stroke="#eee"/>
<text x="60" y="408.0" font-size="11" fill="#888" text-anchor="end">20</text>
<line x1="70" y1="318.0" x2="940" y2="318.0" stroke="#eee"/>
<text x="60" y="322.0" font-size="11" fill="#888" text-anchor="end">40</text>
<line x1="70" y1="232.0" x2="940" y2="232.0" stroke="#eee"/>
<text x="60" y="236.0" font-size="11" fill="#888" text-anchor="end">60</text>
<line x1="70" y1="146.0" x2="940" y2="146.0" stroke="#eee"/>
<text x="60" y="150.0" font-size="11" fill="#888" text-anchor="end">80</text>
<line x1="70" y1="60.0" x2="940" y2="60.0" stroke="#eee"/>
<text x="60" y="64.0" font-size="11" fill="#888" text-anchor="end">100</text>
<line x1="70" y1="60" x2="70" y2="490" stroke="#bbb"/>
<line x1="70" y1="490" x2="940" y2="490" stroke="#bbb"/>
<line x1="70.0" y1="490" x2="70.0" y2="495" stroke="#bbb"/>
<text x="70.0" y="510" font-size="10" fill="#666" text-anchor="end" transform="rotate(-45 70.0 510)">0:8d5be56</text>
<line x1="138.0" y1="490" x2="138.0" y2="495" stroke="#bbb"/>
<text x="138.0" y="510" font-size="10" fill="#666" text-anchor="end" transform="rotate(-45 138.0 510)">5:8fe94e8</text>
<line x1="205.9" y1="490" x2="205.9" y2="495" stroke="#bbb"/>
<text x="205.9" y="510" font-size="10" fill="#666" text-anchor="end" transform="rotate(-45 205.9 510)">10:862a2d0</text>
<line x1="273.9" y1="490" x2="273.9" y2="495" stroke="#bbb"/>
<text x="273.9" y="510" font-size="10" fill="#666" text-anchor="end" transform="rotate(-45 273.9 510)">15:bff1c68</text>
<line x1="341.9" y1="490" x2="341.9" y2="495" stroke="#bbb"/>
<text x="341.9" y="510" font-size="10" fill="#666" text-anchor="end" transform="rotate(-45 341.9 510)">20:780ff71</text>
<line x1="409.8" y1="490" x2="409.8" y2="495" stroke="#bbb"/>
<text x="409.8" y="510" font-size="10" fill="#666" text-anchor="end" transform="rotate(-45 409.8 510)">25:3d03e1e</text>
<line x1="477.8" y1="490" x2="477.8" y2="495" stroke="#bbb"/>
<text x="477.8" y="510" font-size="10" fill="#666" text-anchor="end" transform="rotate(-45 477.8 510)">30:ede4983</text>
<line x1="545.8" y1="490" x2="545.8" y2="495" stroke="#bbb"/>
<text x="545.8" y="510" font-size="10" fill="#666" text-anchor="end" transform="rotate(-45 545.8 510)">35:0bb3cfd</text>
<line x1="613.8" y1="490" x2="613.8" y2="495" stroke="#bbb"/>
<text x="613.8" y="510" font-size="10" fill="#666" text-anchor="end" transform="rotate(-45 613.8 510)">40:7f50606</text>
<line x1="681.7" y1="490" x2="681.7" y2="495" stroke="#bbb"/>
<text x="681.7" y="510" font-size="10" fill="#666" text-anchor="end" transform="rotate(-45 681.7 510)">45:fcd1dab</text>
<line x1="749.7" y1="490" x2="749.7" y2="495" stroke="#bbb"/>
<text x="749.7" y="510" font-size="10" fill="#666" text-anchor="end" transform="rotate(-45 749.7 510)">50:1f17691</text>
<line x1="817.7" y1="490" x2="817.7" y2="495" stroke="#bbb"/>
<text x="817.7" y="510" font-size="10" fill="#666" text-anchor="end" transform="rotate(-45 817.7 510)">55:c5f4a02</text>
<line x1="885.6" y1="490" x2="885.6" y2="495" stroke="#bbb"/>
<text x="885.6" y="510" font-size="10" fill="#666" text-anchor="end" transform="rotate(-45 885.6 510)">60:ad11690</text>
<line x1="940.0" y1="490" x2="940.0" y2="495" stroke="#bbb"/>
<text x="940.0" y="510" font-size="10" fill="#666" text-anchor="end" transform="rotate(-45 940.0 510)">64:2cf548a</text>
<path d="M 70.0,214.3 L 83.6,214.3 L 97.2,214.3 L 110.8,214.3 L 124.4,214.3 L 138.0,214.3 L 151.6,211.5 L 165.2,211.5 L 178.8,211.5 L 192.3,211.5 L 205.9,211.5 L 219.5,211.5 L 233.1,211.5 L 246.7,211.5 L 260.3,211.5 L 273.9,211.5 L 287.5,211.5 L 301.1,211.5 L 314.7,211.5 L 328.3,211.5 L 341.9,211.5 L 355.5,211.5 L 369.1,204.6 L 382.7,204.6 L 396.2,190.2 L 409.8,179.8 L 423.4,178.1 L 437.0,178.1 L 450.6,178.1 L 464.2,167.2 L 477.8,167.2 L 491.4,167.2 L 505.0,167.2 L 518.6,167.2 L 532.2,167.2 L 545.8,167.2 L 559.4,167.2 L 573.0,121.0 L 586.6,121.0 L 600.2,121.0 L 613.8,121.0 L 627.3,121.0 L 640.9,121.0 L 654.5,121.0 L 668.1,121.0 L 681.7,121.0 L 695.3,121.0 L 708.9,121.0 L 722.5,121.0 L 736.1,121.0 L 749.7,121.0 L 763.3,121.0 L 776.9,121.0 L 790.5,121.0 L 804.1,121.0 L 817.7,121.0 L 831.2,121.0 L 844.8,121.0 L 858.4,121.0 L 872.0,121.0 L 885.6,121.0 L 899.2,121.0 L 912.8,121.0 L 926.4,121.0 L 940.0,121.0" fill="none" stroke="#16a34a" stroke-width="2"/><circle cx="70.0" cy="214.3" r="2.3" fill="#16a34a"/><circle cx="83.6" cy="214.3" r="2.3" fill="#16a34a"/><circle cx="97.2" cy="214.3" r="2.3" fill="#16a34a"/><circle cx="110.8" cy="214.3" r="2.3" fill="#16a34a"/><circle cx="124.4" cy="214.3" r="2.3" fill="#16a34a"/><circle cx="138.0" cy="214.3" r="2.3" fill="#16a34a"/><circle cx="151.6" cy="211.5" r="2.3" fill="#16a34a"/><circle cx="165.2" cy="211.5" r="2.3" fill="#16a34a"/><circle cx="178.8" cy="211.5" r="2.3" fill="#16a34a"/><circle cx="192.3" cy="211.5" r="2.3" fill="#16a34a"/><circle cx="205.9" cy="211.5" r="2.3" fill="#16a34a"/><circle cx="219.5" cy="211.5" r="2.3" fill="#16a34a"/><circle cx="233.1" cy="211.5" r="2.3" fill="#16a34a"/><circle cx="246.7" cy="211.5" r="2.3" fill="#16a34a"/><circle cx="260.3" cy="211.5" r="2.3" fill="#16a34a"/><circle cx="273.9" cy="211.5" r="2.3" fill="#16a34a"/><circle cx="287.5" cy="211.5" r="2.3" fill="#16a34a"/><circle cx="301.1" cy="211.5" r="2.3" fill="#16a34a"/><circle cx="314.7" cy="211.5" r="2.3" fill="#16a34a"/><circle cx="328.3" cy="211.5" r="2.3" fill="#16a34a"/><circle cx="341.9" cy="211.5" r="2.3" fill="#16a34a"/><circle cx="355.5" cy="211.5" r="2.3" fill="#16a34a"/><circle cx="369.1" cy="204.6" r="2.3" fill="#16a34a"/><circle cx="382.7" cy="204.6" r="2.3" fill="#16a34a"/><circle cx="396.2" cy="190.2" r="2.3" fill="#16a34a"/><circle cx="409.8" cy="179.8" r="2.3" fill="#16a34a"/><circle cx="423.4" cy="178.1" r="2.3" fill="#16a34a"/><circle cx="437.0" cy="178.1" r="2.3" fill="#16a34a"/><circle cx="450.6" cy="178.1" r="2.3" fill="#16a34a"/><circle cx="464.2" cy="167.2" r="2.3" fill="#16a34a"/><circle cx="477.8" cy="167.2" r="2.3" fill="#16a34a"/><circle cx="491.4" cy="167.2" r="2.3" fill="#16a34a"/><circle cx="505.0" cy="167.2" r="2.3" fill="#16a34a"/><circle cx="518.6" cy="167.2" r="2.3" fill="#16a34a"/><circle cx="532.2" cy="167.2" r="2.3" fill="#16a34a"/><circle cx="545.8" cy="167.2" r="2.3" fill="#16a34a"/><circle cx="559.4" cy="167.2" r="2.3" fill="#16a34a"/><circle cx="573.0" cy="121.0" r="2.3" fill="#16a34a"/><circle cx="586.6" cy="121.0" r="2.3" fill="#16a34a"/><circle cx="600.2" cy="121.0" r="2.3" fill="#16a34a"/><circle cx="613.8" cy="121.0" r="2.3" fill="#16a34a"/><circle cx="627.3" cy="121.0" r="2.3" fill="#16a34a"/><circle cx="640.9" cy="121.0" r="2.3" fill="#16a34a"/><circle cx="654.5" cy="121.0" r="2.3" fill="#16a34a"/><circle cx="668.1" cy="121.0" r="2.3" fill="#16a34a"/><circle cx="681.7" cy="121.0" r="2.3" fill="#16a34a"/><circle cx="695.3" cy="121.0" r="2.3" fill="#16a34a"/><circle cx="708.9" cy="121.0" r="2.3" fill="#16a34a"/><circle cx="722.5" cy="121.0" r="2.3" fill="#16a34a"/><circle cx="736.1" cy="121.0" r="2.3" fill="#16a34a"/><circle cx="749.7" cy="121.0" r="2.3" fill="#16a34a"/><circle cx="763.3" cy="121.0" r="2.3" fill="#16a34a"/><circle cx="776.9" cy="121.0" r="2.3" fill="#16a34a"/><circle cx="790.5" cy="121.0" r="2.3" fill="#16a34a"/><circle cx="804.1" cy="121.0" r="2.3" fill="#16a34a"/><circle cx="817.7" cy="121.0" r="2.3" fill="#16a34a"/><circle cx="831.2" cy="121.0" r="2.3" fill="#16a34a"/><circle cx="844.8" cy="121.0" r="2.3" fill="#16a34a"/><circle cx="858.4" cy="121.0" r="2.3" fill="#16a34a"/><circle cx="872.0" cy="121.0" r="2.3" fill="#16a34a"/><circle cx="885.6" cy="121.0" r="2.3" fill="#16a34a"/><circle cx="899.2" cy="121.0" r="2.3" fill="#16a34a"/><circle cx="912.8" cy="121.0" r="2.3" fill="#16a34a"/><circle cx="926.4" cy="121.0" r="2.3" fill="#16a34a"/><circle cx="940.0" cy="121.0" r="2.3" fill="#16a34a"/>
<path d="M 70.0,403.4 L 83.6,401.3 L 97.2,400.8 L 110.8,400.8 L 124.4,400.3 L 138.0,399.7 L 151.6,399.3 L 165.2,399.3 L 178.8,399.3 L 192.3,399.4 L 205.9,399.1 L 219.5,398.7 L 233.1,396.7 L 246.7,395.9 L 260.3,395.9 L 273.9,395.9 L 287.5,395.3 L 301.1,395.3 L 314.7,395.3 L 328.3,395.3 L 341.9,395.3 L 355.5,395.0 L 369.1,395.8 L 382.7,395.6 L 396.2,394.4 L 409.8,393.5 L 423.4,393.6 L 437.0,391.8 L 450.6,390.8 L 464.2,393.7 L 477.8,392.3 L 491.4,392.2 L 505.0,392.0 L 518.6,388.9 L 532.2,388.1 L 545.8,387.5 L 559.4,387.5 L 573.0,383.5 L 586.6,383.5 L 600.2,383.5 L 613.8,383.4 L 627.3,383.3 L 640.9,383.3 L 654.5,383.3 L 668.1,383.3 L 681.7,383.3 L 695.3,383.3 L 708.9,383.3 L 722.5,383.2 L 736.1,383.2 L 749.7,383.2 L 763.3,383.2 L 776.9,383.2 L 790.5,383.0 L 804.1,383.0 L 817.7,382.6 L 831.2,382.6 L 844.8,382.6 L 858.4,382.6 L 872.0,382.5 L 885.6,382.1 L 899.2,382.1 L 912.8,382.1 L 926.4,382.1 L 940.0,382.1" fill="none" stroke="#2563eb" stroke-width="2"/><circle cx="70.0" cy="403.4" r="2.3" fill="#2563eb"/><circle cx="83.6" cy="401.3" r="2.3" fill="#2563eb"/><circle cx="97.2" cy="400.8" r="2.3" fill="#2563eb"/><circle cx="110.8" cy="400.8" r="2.3" fill="#2563eb"/><circle cx="124.4" cy="400.3" r="2.3" fill="#2563eb"/><circle cx="138.0" cy="399.7" r="2.3" fill="#2563eb"/><circle cx="151.6" cy="399.3" r="2.3" fill="#2563eb"/><circle cx="165.2" cy="399.3" r="2.3" fill="#2563eb"/><circle cx="178.8" cy="399.3" r="2.3" fill="#2563eb"/><circle cx="192.3" cy="399.4" r="2.3" fill="#2563eb"/><circle cx="205.9" cy="399.1" r="2.3" fill="#2563eb"/><circle cx="219.5" cy="398.7" r="2.3" fill="#2563eb"/><circle cx="233.1" cy="396.7" r="2.3" fill="#2563eb"/><circle cx="246.7" cy="395.9" r="2.3" fill="#2563eb"/><circle cx="260.3" cy="395.9" r="2.3" fill="#2563eb"/><circle cx="273.9" cy="395.9" r="2.3" fill="#2563eb"/><circle cx="287.5" cy="395.3" r="2.3" fill="#2563eb"/><circle cx="301.1" cy="395.3" r="2.3" fill="#2563eb"/><circle cx="314.7" cy="395.3" r="2.3" fill="#2563eb"/><circle cx="328.3" cy="395.3" r="2.3" fill="#2563eb"/><circle cx="341.9" cy="395.3" r="2.3" fill="#2563eb"/><circle cx="355.5" cy="395.0" r="2.3" fill="#2563eb"/><circle cx="369.1" cy="395.8" r="2.3" fill="#2563eb"/><circle cx="382.7" cy="395.6" r="2.3" fill="#2563eb"/><circle cx="396.2" cy="394.4" r="2.3" fill="#2563eb"/><circle cx="409.8" cy="393.5" r="2.3" fill="#2563eb"/><circle cx="423.4" cy="393.6" r="2.3" fill="#2563eb"/><circle cx="437.0" cy="391.8" r="2.3" fill="#2563eb"/><circle cx="450.6" cy="390.8" r="2.3" fill="#2563eb"/><circle cx="464.2" cy="393.7" r="2.3" fill="#2563eb"/><circle cx="477.8" cy="392.3" r="2.3" fill="#2563eb"/><circle cx="491.4" cy="392.2" r="2.3" fill="#2563eb"/><circle cx="505.0" cy="392.0" r="2.3" fill="#2563eb"/><circle cx="518.6" cy="388.9" r="2.3" fill="#2563eb"/><circle cx="532.2" cy="388.1" r="2.3" fill="#2563eb"/><circle cx="545.8" cy="387.5" r="2.3" fill="#2563eb"/><circle cx="559.4" cy="387.5" r="2.3" fill="#2563eb"/><circle cx="573.0" cy="383.5" r="2.3" fill="#2563eb"/><circle cx="586.6" cy="383.5" r="2.3" fill="#2563eb"/><circle cx="600.2" cy="383.5" r="2.3" fill="#2563eb"/><circle cx="613.8" cy="383.4" r="2.3" fill="#2563eb"/><circle cx="627.3" cy="383.3" r="2.3" fill="#2563eb"/><circle cx="640.9" cy="383.3" r="2.3" fill="#2563eb"/><circle cx="654.5" cy="383.3" r="2.3" fill="#2563eb"/><circle cx="668.1" cy="383.3" r="2.3" fill="#2563eb"/><circle cx="681.7" cy="383.3" r="2.3" fill="#2563eb"/><circle cx="695.3" cy="383.3" r="2.3" fill="#2563eb"/><circle cx="708.9" cy="383.3" r="2.3" fill="#2563eb"/><circle cx="722.5" cy="383.2" r="2.3" fill="#2563eb"/><circle cx="736.1" cy="383.2" r="2.3" fill="#2563eb"/><circle cx="749.7" cy="383.2" r="2.3" fill="#2563eb"/><circle cx="763.3" cy="383.2" r="2.3" fill="#2563eb"/><circle cx="776.9" cy="383.2" r="2.3" fill="#2563eb"/><circle cx="790.5" cy="383.0" r="2.3" fill="#2563eb"/><circle cx="804.1" cy="383.0" r="2.3" fill="#2563eb"/><circle cx="817.7" cy="382.6" r="2.3" fill="#2563eb"/><circle cx="831.2" cy="382.6" r="2.3" fill="#2563eb"/><circle cx="844.8" cy="382.6" r="2.3" fill="#2563eb"/><circle cx="858.4" cy="382.6" r="2.3" fill="#2563eb"/><circle cx="872.0" cy="382.5" r="2.3" fill="#2563eb"/><circle cx="885.6" cy="382.1" r="2.3" fill="#2563eb"/><circle cx="899.2" cy="382.1" r="2.3" fill="#2563eb"/><circle cx="912.8" cy="382.1" r="2.3" fill="#2563eb"/><circle cx="926.4" cy="382.1" r="2.3" fill="#2563eb"/><circle cx="940.0" cy="382.1" r="2.3" fill="#2563eb"/>
<path d="M 70.0,436.1 L 83.6,434.7 L 97.2,434.4 L 110.8,434.4 L 124.4,434.2 L 138.0,433.9 L 151.6,433.2 L 165.2,433.2 L 178.8,433.2 L 192.3,433.3 L 205.9,433.3 L 219.5,433.0 L 233.1,432.1 L 246.7,431.8 L 260.3,431.8 L 273.9,431.8 L 287.5,431.4 L 301.1,431.4 L 314.7,431.4 L 328.3,431.4 L 341.9,431.4 L 355.5,431.3 L 369.1,430.3 L 382.7,430.2 L 396.2,426.2 L 409.8,423.6 L 423.4,423.2 L 437.0,421.9 L 450.6,421.2 L 464.2,421.0 L 477.8,420.0 L 491.4,419.9 L 505.0,419.8 L 518.6,418.1 L 532.2,417.4 L 545.8,417.0 L 559.4,417.0 L 573.0,402.7 L 586.6,402.7 L 600.2,402.8 L 613.8,402.6 L 627.3,402.5 L 640.9,402.5 L 654.5,402.5 L 668.1,402.5 L 681.7,402.5 L 695.3,402.5 L 708.9,402.5 L 722.5,402.5 L 736.1,402.5 L 749.7,402.5 L 763.3,402.5 L 776.9,402.5 L 790.5,402.3 L 804.1,402.3 L 817.7,402.0 L 831.2,402.0 L 844.8,402.0 L 858.4,402.0 L 872.0,401.7 L 885.6,401.2 L 899.2,401.2 L 912.8,401.2 L 926.4,401.2 L 940.0,401.2" fill="none" stroke="#dc2626" stroke-width="2"/><circle cx="70.0" cy="436.1" r="2.3" fill="#dc2626"/><circle cx="83.6" cy="434.7" r="2.3" fill="#dc2626"/><circle cx="97.2" cy="434.4" r="2.3" fill="#dc2626"/><circle cx="110.8" cy="434.4" r="2.3" fill="#dc2626"/><circle cx="124.4" cy="434.2" r="2.3" fill="#dc2626"/><circle cx="138.0" cy="433.9" r="2.3" fill="#dc2626"/><circle cx="151.6" cy="433.2" r="2.3" fill="#dc2626"/><circle cx="165.2" cy="433.2" r="2.3" fill="#dc2626"/><circle cx="178.8" cy="433.2" r="2.3" fill="#dc2626"/><circle cx="192.3" cy="433.3" r="2.3" fill="#dc2626"/><circle cx="205.9" cy="433.3" r="2.3" fill="#dc2626"/><circle cx="219.5" cy="433.0" r="2.3" fill="#dc2626"/><circle cx="233.1" cy="432.1" r="2.3" fill="#dc2626"/><circle cx="246.7" cy="431.8" r="2.3" fill="#dc2626"/><circle cx="260.3" cy="431.8" r="2.3" fill="#dc2626"/><circle cx="273.9" cy="431.8" r="2.3" fill="#dc2626"/><circle cx="287.5" cy="431.4" r="2.3" fill="#dc2626"/><circle cx="301.1" cy="431.4" r="2.3" fill="#dc2626"/><circle cx="314.7" cy="431.4" r="2.3" fill="#dc2626"/><circle cx="328.3" cy="431.4" r="2.3" fill="#dc2626"/><circle cx="341.9" cy="431.4" r="2.3" fill="#dc2626"/><circle cx="355.5" cy="431.3" r="2.3" fill="#dc2626"/><circle cx="369.1" cy="430.3" r="2.3" fill="#dc2626"/><circle cx="382.7" cy="430.2" r="2.3" fill="#dc2626"/><circle cx="396.2" cy="426.2" r="2.3" fill="#dc2626"/><circle cx="409.8" cy="423.6" r="2.3" fill="#dc2626"/><circle cx="423.4" cy="423.2" r="2.3" fill="#dc2626"/><circle cx="437.0" cy="421.9" r="2.3" fill="#dc2626"/><circle cx="450.6" cy="421.2" r="2.3" fill="#dc2626"/><circle cx="464.2" cy="421.0" r="2.3" fill="#dc2626"/><circle cx="477.8" cy="420.0" r="2.3" fill="#dc2626"/><circle cx="491.4" cy="419.9" r="2.3" fill="#dc2626"/><circle cx="505.0" cy="419.8" r="2.3" fill="#dc2626"/><circle cx="518.6" cy="418.1" r="2.3" fill="#dc2626"/><circle cx="532.2" cy="417.4" r="2.3" fill="#dc2626"/><circle cx="545.8" cy="417.0" r="2.3" fill="#dc2626"/><circle cx="559.4" cy="417.0" r="2.3" fill="#dc2626"/><circle cx="573.0" cy="402.7" r="2.3" fill="#dc2626"/><circle cx="586.6" cy="402.7" r="2.3" fill="#dc2626"/><circle cx="600.2" cy="402.8" r="2.3" fill="#dc2626"/><circle cx="613.8" cy="402.6" r="2.3" fill="#dc2626"/><circle cx="627.3" cy="402.5" r="2.3" fill="#dc2626"/><circle cx="640.9" cy="402.5" r="2.3" fill="#dc2626"/><circle cx="654.5" cy="402.5" r="2.3" fill="#dc2626"/><circle cx="668.1" cy="402.5" r="2.3" fill="#dc2626"/><circle cx="681.7" cy="402.5" r="2.3" fill="#dc2626"/><circle cx="695.3" cy="402.5" r="2.3" fill="#dc2626"/><circle cx="708.9" cy="402.5" r="2.3" fill="#dc2626"/><circle cx="722.5" cy="402.5" r="2.3" fill="#dc2626"/><circle cx="736.1" cy="402.5" r="2.3" fill="#dc2626"/><circle cx="749.7" cy="402.5" r="2.3" fill="#dc2626"/><circle cx="763.3" cy="402.5" r="2.3" fill="#dc2626"/><circle cx="776.9" cy="402.5" r="2.3" fill="#dc2626"/><circle cx="790.5" cy="402.3" r="2.3" fill="#dc2626"/><circle cx="804.1" cy="402.3" r="2.3" fill="#dc2626"/><circle cx="817.7" cy="402.0" r="2.3" fill="#dc2626"/><circle cx="831.2" cy="402.0" r="2.3" fill="#dc2626"/><circle cx="844.8" cy="402.0" r="2.3" fill="#dc2626"/><circle cx="858.4" cy="402.0" r="2.3" fill="#dc2626"/><circle cx="872.0" cy="401.7" r="2.3" fill="#dc2626"/><circle cx="885.6" cy="401.2" r="2.3" fill="#dc2626"/><circle cx="899.2" cy="401.2" r="2.3" fill="#dc2626"/><circle cx="912.8" cy="401.2" r="2.3" fill="#dc2626"/><circle cx="926.4" cy="401.2" r="2.3" fill="#dc2626"/><circle cx="940.0" cy="401.2" r="2.3" fill="#dc2626"/>
<path d="M 70.0,305.3 L 83.6,306.7 L 97.2,308.1 L 110.8,308.1 L 124.4,309.7 L 138.0,310.6 L 151.6,311.1 L 165.2,311.1 L 178.8,311.1 L 192.3,311.0 L 205.9,312.2 L 219.5,312.9 L 233.1,316.8 L 246.7,317.5 L 260.3,317.8 L 273.9,317.8 L 287.5,320.0 L 301.1,320.0 L 314.7,320.0 L 328.3,320.0 L 341.9,320.2 L 355.5,321.2 L 369.1,319.7 L 382.7,319.3 L 396.2,317.8 L 409.8,318.5 L 423.4,317.0 L 437.0,319.0 L 450.6,320.1 L 464.2,314.7 L 477.8,319.2 L 491.4,319.8 L 505.0,319.8 L 518.6,325.2 L 532.2,325.8 L 545.8,325.7 L 559.4,325.7 L 573.0,331.3 L 586.6,331.4 L 600.2,331.5 L 613.8,331.5 L 627.3,331.5 L 640.9,331.5 L 654.5,331.5 L 668.1,331.5 L 681.7,331.5 L 695.3,331.5 L 708.9,331.5 L 722.5,331.5 L 736.1,331.5 L 749.7,331.5 L 763.3,331.5 L 776.9,331.5 L 790.5,331.9 L 804.1,331.9 L 817.7,332.2 L 831.2,332.1 L 844.8,332.1 L 858.4,332.2 L 872.0,331.5 L 885.6,331.6 L 899.2,331.6 L 912.8,331.6 L 926.4,331.6 L 940.0,331.6" fill="none" stroke="#9333ea" stroke-width="2" stroke-dasharray="5,4"/><circle cx="70.0" cy="305.3" r="2.3" fill="#9333ea"/><circle cx="83.6" cy="306.7" r="2.3" fill="#9333ea"/><circle cx="97.2" cy="308.1" r="2.3" fill="#9333ea"/><circle cx="110.8" cy="308.1" r="2.3" fill="#9333ea"/><circle cx="124.4" cy="309.7" r="2.3" fill="#9333ea"/><circle cx="138.0" cy="310.6" r="2.3" fill="#9333ea"/><circle cx="151.6" cy="311.1" r="2.3" fill="#9333ea"/><circle cx="165.2" cy="311.1" r="2.3" fill="#9333ea"/><circle cx="178.8" cy="311.1" r="2.3" fill="#9333ea"/><circle cx="192.3" cy="311.0" r="2.3" fill="#9333ea"/><circle cx="205.9" cy="312.2" r="2.3" fill="#9333ea"/><circle cx="219.5" cy="312.9" r="2.3" fill="#9333ea"/><circle cx="233.1" cy="316.8" r="2.3" fill="#9333ea"/><circle cx="246.7" cy="317.5" r="2.3" fill="#9333ea"/><circle cx="260.3" cy="317.8" r="2.3" fill="#9333ea"/><circle cx="273.9" cy="317.8" r="2.3" fill="#9333ea"/><circle cx="287.5" cy="320.0" r="2.3" fill="#9333ea"/><circle cx="301.1" cy="320.0" r="2.3" fill="#9333ea"/><circle cx="314.7" cy="320.0" r="2.3" fill="#9333ea"/><circle cx="328.3" cy="320.0" r="2.3" fill="#9333ea"/><circle cx="341.9" cy="320.2" r="2.3" fill="#9333ea"/><circle cx="355.5" cy="321.2" r="2.3" fill="#9333ea"/><circle cx="369.1" cy="319.7" r="2.3" fill="#9333ea"/><circle cx="382.7" cy="319.3" r="2.3" fill="#9333ea"/><circle cx="396.2" cy="317.8" r="2.3" fill="#9333ea"/><circle cx="409.8" cy="318.5" r="2.3" fill="#9333ea"/><circle cx="423.4" cy="317.0" r="2.3" fill="#9333ea"/><circle cx="437.0" cy="319.0" r="2.3" fill="#9333ea"/><circle cx="450.6" cy="320.1" r="2.3" fill="#9333ea"/><circle cx="464.2" cy="314.7" r="2.3" fill="#9333ea"/><circle cx="477.8" cy="319.2" r="2.3" fill="#9333ea"/><circle cx="491.4" cy="319.8" r="2.3" fill="#9333ea"/><circle cx="505.0" cy="319.8" r="2.3" fill="#9333ea"/><circle cx="518.6" cy="325.2" r="2.3" fill="#9333ea"/><circle cx="532.2" cy="325.8" r="2.3" fill="#9333ea"/><circle cx="545.8" cy="325.7" r="2.3" fill="#9333ea"/><circle cx="559.4" cy="325.7" r="2.3" fill="#9333ea"/><circle cx="573.0" cy="331.3" r="2.3" fill="#9333ea"/><circle cx="586.6" cy="331.4" r="2.3" fill="#9333ea"/><circle cx="600.2" cy="331.5" r="2.3" fill="#9333ea"/><circle cx="613.8" cy="331.5" r="2.3" fill="#9333ea"/><circle cx="627.3" cy="331.5" r="2.3" fill="#9333ea"/><circle cx="640.9" cy="331.5" r="2.3" fill="#9333ea"/><circle cx="654.5" cy="331.5" r="2.3" fill="#9333ea"/><circle cx="668.1" cy="331.5" r="2.3" fill="#9333ea"/><circle cx="681.7" cy="331.5" r="2.3" fill="#9333ea"/><circle cx="695.3" cy="331.5" r="2.3" fill="#9333ea"/><circle cx="708.9" cy="331.5" r="2.3" fill="#9333ea"/><circle cx="722.5" cy="331.5" r="2.3" fill="#9333ea"/><circle cx="736.1" cy="331.5" r="2.3" fill="#9333ea"/><circle cx="749.7" cy="331.5" r="2.3" fill="#9333ea"/><circle cx="763.3" cy="331.5" r="2.3" fill="#9333ea"/><circle cx="776.9" cy="331.5" r="2.3" fill="#9333ea"/><circle cx="790.5" cy="331.9" r="2.3" fill="#9333ea"/><circle cx="804.1" cy="331.9" r="2.3" fill="#9333ea"/><circle cx="817.7" cy="332.2" r="2.3" fill="#9333ea"/><circle cx="831.2" cy="332.1" r="2.3" fill="#9333ea"/><circle cx="844.8" cy="332.1" r="2.3" fill="#9333ea"/><circle cx="858.4" cy="332.2" r="2.3" fill="#9333ea"/><circle cx="872.0" cy="331.5" r="2.3" fill="#9333ea"/><circle cx="885.6" cy="331.6" r="2.3" fill="#9333ea"/><circle cx="899.2" cy="331.6" r="2.3" fill="#9333ea"/><circle cx="912.8" cy="331.6" r="2.3" fill="#9333ea"/><circle cx="926.4" cy="331.6" r="2.3" fill="#9333ea"/><circle cx="940.0" cy="331.6" r="2.3" fill="#9333ea"/>
<rect x="960" y="60" width="14" height="14" fill="#16a34a"/>
<text x="980" y="72" font-size="12" fill="#111">File coverage %</text>
<text x="980" y="87" font-size="11" fill="#666">latest 85.8</text>
<rect x="960" y="106" width="14" height="14" fill="#2563eb"/>
<text x="980" y="118" font-size="12" fill="#111">Matched-files recall</text>
<text x="980" y="133" font-size="11" fill="#666">latest 25.1</text>
<rect x="960" y="152" width="14" height="14" fill="#dc2626"/>
<text x="980" y="164" font-size="12" fill="#111">Parity score (incl. penalty)</text>
<text x="980" y="179" font-size="11" fill="#666">latest 20.7</text>
<line x1="960" y1="205" x2="974" y2="205" stroke="#9333ea" stroke-width="3" stroke-dasharray="5,4"/>
<text x="980" y="210" font-size="12" fill="#111">File-level precision (diag)</text>
<text x="980" y="225" font-size="11" fill="#666">latest 36.8</text>
<text x="505.0" y="585" font-size="12" fill="#444" text-anchor="middle">commit (oldest → newest)</text>
</svg>