<svg xmlns="http://www.w3.org/2000/svg" width="1180" height="600" font-family="-apple-system,Segoe UI,Roboto,sans-serif">
<rect width="1180" height="600" fill="#ffffff"/>
<text x="70" y="28" font-size="18" font-weight="700" fill="#111">pzoom → Psalm / Hakana similarity over 51 commits</text>
<text x="70" y="46" font-size="12" fill="#666">Mean top-1 auto-match score (0–100) of each pzoom Rust file to its nearest counterpart</text>
<line x1="70" y1="490.0" x2="950" y2="490.0" stroke="#eee"/>
<text x="60" y="494.0" font-size="11" fill="#888" text-anchor="end">0</text>
<line x1="70" y1="404.0" x2="950" y2="404.0" stroke="#eee"/>
<text x="60" y="408.0" font-size="11" fill="#888" text-anchor="end">20</text>
<line x1="70" y1="318.0" x2="950" y2="318.0" stroke="#eee"/>
<text x="60" y="322.0" font-size="11" fill="#888" text-anchor="end">40</text>
<line x1="70" y1="232.0" x2="950" y2="232.0" stroke="#eee"/>
<text x="60" y="236.0" font-size="11" fill="#888" text-anchor="end">60</text>
<line x1="70" y1="146.0" x2="950" y2="146.0" stroke="#eee"/>
<text x="60" y="150.0" font-size="11" fill="#888" text-anchor="end">80</text>
<line x1="70" y1="60.0" x2="950" y2="60.0" stroke="#eee"/>
<text x="60" y="64.0" font-size="11" fill="#888" text-anchor="end">100</text>
<line x1="70" y1="60" x2="70" y2="490" stroke="#bbb"/>
<line x1="70" y1="490" x2="950" y2="490" stroke="#bbb"/>
<line x1="70.0" y1="490" x2="70.0" y2="495" stroke="#bbb"/>
<text x="70.0" y="510" font-size="10" fill="#666" text-anchor="end" transform="rotate(-45 70.0 510)">0:8d5be56</text>
<line x1="158.0" y1="490" x2="158.0" y2="495" stroke="#bbb"/>
<text x="158.0" y="510" font-size="10" fill="#666" text-anchor="end" transform="rotate(-45 158.0 510)">5:8fe94e8</text>
<line x1="246.0" y1="490" x2="246.0" y2="495" stroke="#bbb"/>
<text x="246.0" y="510" font-size="10" fill="#666" text-anchor="end" transform="rotate(-45 246.0 510)">10:862a2d0</text>
<line x1="334.0" y1="490" x2="334.0" y2="495" stroke="#bbb"/>
<text x="334.0" y="510" font-size="10" fill="#666" text-anchor="end" transform="rotate(-45 334.0 510)">15:bff1c68</text>
<line x1="422.0" y1="490" x2="422.0" y2="495" stroke="#bbb"/>
<text x="422.0" y="510" font-size="10" fill="#666" text-anchor="end" transform="rotate(-45 422.0 510)">20:780ff71</text>
<line x1="510.0" y1="490" x2="510.0" y2="495" stroke="#bbb"/>
<text x="510.0" y="510" font-size="10" fill="#666" text-anchor="end" transform="rotate(-45 510.0 510)">25:3d03e1e</text>
<line x1="598.0" y1="490" x2="598.0" y2="495" stroke="#bbb"/>
<text x="598.0" y="510" font-size="10" fill="#666" text-anchor="end" transform="rotate(-45 598.0 510)">30:ede4983</text>
<line x1="686.0" y1="490" x2="686.0" y2="495" stroke="#bbb"/>
<text x="686.0" y="510" font-size="10" fill="#666" text-anchor="end" transform="rotate(-45 686.0 510)">35:0bb3cfd</text>
<line x1="774.0" y1="490" x2="774.0" y2="495" stroke="#bbb"/>
<text x="774.0" y="510" font-size="10" fill="#666" text-anchor="end" transform="rotate(-45 774.0 510)">40:7f50606</text>
<line x1="862.0" y1="490" x2="862.0" y2="495" stroke="#bbb"/>
<text x="862.0" y="510" font-size="10" fill="#666" text-anchor="end" transform="rotate(-45 862.0 510)">45:fcd1dab</text>
<line x1="950.0" y1="490" x2="950.0" y2="495" stroke="#bbb"/>
<text x="950.0" y="510" font-size="10" fill="#666" text-anchor="end" transform="rotate(-45 950.0 510)">50:9dee2f7</text>
<path d="M 70.0,265.4 L 87.6,265.3 L 105.2,265.2 L 122.8,265.2 L 140.4,265.3 L 158.0,265.5 L 175.6,264.9 L 193.2,264.9 L 210.8,264.9 L 228.4,264.9 L 246.0,264.9 L 263.6,265.0 L 281.2,264.9 L 298.8,265.0 L 316.4,265.0 L 334.0,265.0 L 351.6,266.6 L 369.2,266.6 L 386.8,266.6 L 404.4,266.6 L 422.0,266.6 L 439.6,266.6 L 457.2,266.0 L 474.8,266.0 L 492.4,264.6 L 510.0,265.5 L 527.6,264.9 L 545.2,264.9 L 562.8,264.8 L 580.4,265.1 L 598.0,265.1 L 615.6,265.1 L 633.2,265.0 L 650.8,267.0 L 668.4,267.0 L 686.0,261.1 L 703.6,261.1 L 721.2,281.7 L 738.8,281.7 L 756.4,281.7 L 774.0,281.8 L 791.6,281.8 L 809.2,281.8 L 826.8,281.8 L 844.4,281.8 L 862.0,281.8 L 879.6,281.8 L 897.2,281.8 L 914.8,281.8 L 932.4,281.8 L 950.0,281.8" fill="none" stroke="#2563eb" stroke-width="2"/><circle cx="70.0" cy="265.4" r="2.5" fill="#2563eb"/><circle cx="87.6" cy="265.3" r="2.5" fill="#2563eb"/><circle cx="105.2" cy="265.2" r="2.5" fill="#2563eb"/><circle cx="122.8" cy="265.2" r="2.5" fill="#2563eb"/><circle cx="140.4" cy="265.3" r="2.5" fill="#2563eb"/><circle cx="158.0" cy="265.5" r="2.5" fill="#2563eb"/><circle cx="175.6" cy="264.9" r="2.5" fill="#2563eb"/><circle cx="193.2" cy="264.9" r="2.5" fill="#2563eb"/><circle cx="210.8" cy="264.9" r="2.5" fill="#2563eb"/><circle cx="228.4" cy="264.9" r="2.5" fill="#2563eb"/><circle cx="246.0" cy="264.9" r="2.5" fill="#2563eb"/><circle cx="263.6" cy="265.0" r="2.5" fill="#2563eb"/><circle cx="281.2" cy="264.9" r="2.5" fill="#2563eb"/><circle cx="298.8" cy="265.0" r="2.5" fill="#2563eb"/><circle cx="316.4" cy="265.0" r="2.5" fill="#2563eb"/><circle cx="334.0" cy="265.0" r="2.5" fill="#2563eb"/><circle cx="351.6" cy="266.6" r="2.5" fill="#2563eb"/><circle cx="369.2" cy="266.6" r="2.5" fill="#2563eb"/><circle cx="386.8" cy="266.6" r="2.5" fill="#2563eb"/><circle cx="404.4" cy="266.6" r="2.5" fill="#2563eb"/><circle cx="422.0" cy="266.6" r="2.5" fill="#2563eb"/><circle cx="439.6" cy="266.6" r="2.5" fill="#2563eb"/><circle cx="457.2" cy="266.0" r="2.5" fill="#2563eb"/><circle cx="474.8" cy="266.0" r="2.5" fill="#2563eb"/><circle cx="492.4" cy="264.6" r="2.5" fill="#2563eb"/><circle cx="510.0" cy="265.5" r="2.5" fill="#2563eb"/><circle cx="527.6" cy="264.9" r="2.5" fill="#2563eb"/><circle cx="545.2" cy="264.9" r="2.5" fill="#2563eb"/><circle cx="562.8" cy="264.8" r="2.5" fill="#2563eb"/><circle cx="580.4" cy="265.1" r="2.5" fill="#2563eb"/><circle cx="598.0" cy="265.1" r="2.5" fill="#2563eb"/><circle cx="615.6" cy="265.1" r="2.5" fill="#2563eb"/><circle cx="633.2" cy="265.0" r="2.5" fill="#2563eb"/><circle cx="650.8" cy="267.0" r="2.5" fill="#2563eb"/><circle cx="668.4" cy="267.0" r="2.5" fill="#2563eb"/><circle cx="686.0" cy="261.1" r="2.5" fill="#2563eb"/><circle cx="703.6" cy="261.1" r="2.5" fill="#2563eb"/><circle cx="721.2" cy="281.7" r="2.5" fill="#2563eb"/><circle cx="738.8" cy="281.7" r="2.5" fill="#2563eb"/><circle cx="756.4" cy="281.7" r="2.5" fill="#2563eb"/><circle cx="774.0" cy="281.8" r="2.5" fill="#2563eb"/><circle cx="791.6" cy="281.8" r="2.5" fill="#2563eb"/><circle cx="809.2" cy="281.8" r="2.5" fill="#2563eb"/><circle cx="826.8" cy="281.8" r="2.5" fill="#2563eb"/><circle cx="844.4" cy="281.8" r="2.5" fill="#2563eb"/><circle cx="862.0" cy="281.8" r="2.5" fill="#2563eb"/><circle cx="879.6" cy="281.8" r="2.5" fill="#2563eb"/><circle cx="897.2" cy="281.8" r="2.5" fill="#2563eb"/><circle cx="914.8" cy="281.8" r="2.5" fill="#2563eb"/><circle cx="932.4" cy="281.8" r="2.5" fill="#2563eb"/><circle cx="950.0" cy="281.8" r="2.5" fill="#2563eb"/>
<path d="M 70.0,283.7 L 87.6,283.3 L 105.2,283.2 L 122.8,283.2 L 140.4,283.2 L 158.0,283.3 L 175.6,282.7 L 193.2,282.7 L 210.8,282.7 L 228.4,282.7 L 246.0,282.4 L 263.6,282.2 L 281.2,281.6 L 298.8,281.8 L 316.4,281.8 L 334.0,281.8 L 351.6,282.7 L 369.2,282.7 L 386.8,282.6 L 404.4,282.6 L 422.0,282.6 L 439.6,282.6 L 457.2,282.5 L 474.8,282.3 L 492.4,280.7 L 510.0,279.8 L 527.6,279.3 L 545.2,278.8 L 562.8,278.7 L 580.4,278.4 L 598.0,277.9 L 615.6,277.9 L 633.2,277.8 L 650.8,278.6 L 668.4,278.6 L 686.0,279.7 L 703.6,279.7 L 721.2,283.7 L 738.8,283.6 L 756.4,283.7 L 774.0,283.7 L 791.6,283.7 L 809.2,283.7 L 826.8,283.7 L 844.4,283.7 L 862.0,283.7 L 879.6,283.7 L 897.2,283.7 L 914.8,283.7 L 932.4,283.7 L 950.0,283.7" fill="none" stroke="#dc2626" stroke-width="2"/><circle cx="70.0" cy="283.7" r="2.5" fill="#dc2626"/><circle cx="87.6" cy="283.3" r="2.5" fill="#dc2626"/><circle cx="105.2" cy="283.2" r="2.5" fill="#dc2626"/><circle cx="122.8" cy="283.2" r="2.5" fill="#dc2626"/><circle cx="140.4" cy="283.2" r="2.5" fill="#dc2626"/><circle cx="158.0" cy="283.3" r="2.5" fill="#dc2626"/><circle cx="175.6" cy="282.7" r="2.5" fill="#dc2626"/><circle cx="193.2" cy="282.7" r="2.5" fill="#dc2626"/><circle cx="210.8" cy="282.7" r="2.5" fill="#dc2626"/><circle cx="228.4" cy="282.7" r="2.5" fill="#dc2626"/><circle cx="246.0" cy="282.4" r="2.5" fill="#dc2626"/><circle cx="263.6" cy="282.2" r="2.5" fill="#dc2626"/><circle cx="281.2" cy="281.6" r="2.5" fill="#dc2626"/><circle cx="298.8" cy="281.8" r="2.5" fill="#dc2626"/><circle cx="316.4" cy="281.8" r="2.5" fill="#dc2626"/><circle cx="334.0" cy="281.8" r="2.5" fill="#dc2626"/><circle cx="351.6" cy="282.7" r="2.5" fill="#dc2626"/><circle cx="369.2" cy="282.7" r="2.5" fill="#dc2626"/><circle cx="386.8" cy="282.6" r="2.5" fill="#dc2626"/><circle cx="404.4" cy="282.6" r="2.5" fill="#dc2626"/><circle cx="422.0" cy="282.6" r="2.5" fill="#dc2626"/><circle cx="439.6" cy="282.6" r="2.5" fill="#dc2626"/><circle cx="457.2" cy="282.5" r="2.5" fill="#dc2626"/><circle cx="474.8" cy="282.3" r="2.5" fill="#dc2626"/><circle cx="492.4" cy="280.7" r="2.5" fill="#dc2626"/><circle cx="510.0" cy="279.8" r="2.5" fill="#dc2626"/><circle cx="527.6" cy="279.3" r="2.5" fill="#dc2626"/><circle cx="545.2" cy="278.8" r="2.5" fill="#dc2626"/><circle cx="562.8" cy="278.7" r="2.5" fill="#dc2626"/><circle cx="580.4" cy="278.4" r="2.5" fill="#dc2626"/><circle cx="598.0" cy="277.9" r="2.5" fill="#dc2626"/><circle cx="615.6" cy="277.9" r="2.5" fill="#dc2626"/><circle cx="633.2" cy="277.8" r="2.5" fill="#dc2626"/><circle cx="650.8" cy="278.6" r="2.5" fill="#dc2626"/><circle cx="668.4" cy="278.6" r="2.5" fill="#dc2626"/><circle cx="686.0" cy="279.7" r="2.5" fill="#dc2626"/><circle cx="703.6" cy="279.7" r="2.5" fill="#dc2626"/><circle cx="721.2" cy="283.7" r="2.5" fill="#dc2626"/><circle cx="738.8" cy="283.6" r="2.5" fill="#dc2626"/><circle cx="756.4" cy="283.7" r="2.5" fill="#dc2626"/><circle cx="774.0" cy="283.7" r="2.5" fill="#dc2626"/><circle cx="791.6" cy="283.7" r="2.5" fill="#dc2626"/><circle cx="809.2" cy="283.7" r="2.5" fill="#dc2626"/><circle cx="826.8" cy="283.7" r="2.5" fill="#dc2626"/><circle cx="844.4" cy="283.7" r="2.5" fill="#dc2626"/><circle cx="862.0" cy="283.7" r="2.5" fill="#dc2626"/><circle cx="879.6" cy="283.7" r="2.5" fill="#dc2626"/><circle cx="897.2" cy="283.7" r="2.5" fill="#dc2626"/><circle cx="914.8" cy="283.7" r="2.5" fill="#dc2626"/><circle cx="932.4" cy="283.7" r="2.5" fill="#dc2626"/><circle cx="950.0" cy="283.7" r="2.5" fill="#dc2626"/>
<rect x="970" y="60" width="14" height="14" fill="#2563eb"/>
<text x="990" y="72" font-size="13" fill="#111">Hakana (Rust)</text>
<text x="990" y="88" font-size="11" fill="#666">latest 48.4</text>
<rect x="970" y="104" width="14" height="14" fill="#dc2626"/>
<text x="990" y="116" font-size="13" fill="#111">Psalm (PHP)</text>
<text x="990" y="132" font-size="11" fill="#666">latest 48.0</text>
<text x="510.0" y="585" font-size="12" fill="#444" text-anchor="middle">commit (oldest → newest)</text>
</svg>